<svg width="71" height="71" viewBox="0 0 71 71" fill="none" xmlns="http://www.w3.org/2000/svg">
<path d="M41.0469 63.2343V51.0312L36.6094 50.045V63.2343H41.0469Z" fill="#1A326E"/>
<path d="M36.6094 63.2344H14.4219H9.98438V67.6719H41.0469V63.2344H36.6094Z" fill="#1A326E"/>
<path d="M31.0625 51.2643V48.8126V44.2686L30.1062 44.7922C29.2775 45.247 28.349 45.4844 27.4038 45.4844H23.6264C22.6823 45.4844 21.7526 45.247 20.9239 44.7922L19.9688 44.2686V48.8126V51.2643C22.8553 54.7289 28.1759 54.7289 31.0625 51.2643Z" fill="#FCE0B9"/>
<path d="M9.98438 63.2344V51.0312C6.30791 51.0312 3.32812 54.011 3.32812 57.6875V67.6719H9.98438V63.2344Z" fill="white"/>
<path d="M14.4219 63.2343V50.045L9.98438 51.0312V63.2343H14.4219Z" fill="#1A326E"/>
<path d="M25.5156 39.9375C27.3539 39.9375 28.8438 38.4476 28.8438 36.6094H22.1875C22.1875 38.4476 23.6774 39.9375 25.5156 39.9375Z" fill="#FFBB90"/>
<path d="M22.1875 36.6094H28.8438H33.2812L37.7188 31.0625V27.7344V31.0625H39.3828C40.9149 31.0625 42.1562 29.8211 42.1562 28.2891C42.1562 26.757 40.9149 25.5156 39.3828 25.5156H37.7188L35.6054 17.5115C34.4228 14.5539 30.7807 13.4867 28.1892 15.3382C26.5718 16.4942 24.4162 16.5607 22.73 15.5068L22.2452 15.204C19.4529 13.4589 15.7687 14.9011 14.9022 18.0773L13.3125 25.5156H11.6484C10.1164 25.5156 8.875 26.757 8.875 28.2891C8.875 29.8211 10.1164 31.0625 11.6484 31.0625H13.3125V27.7344V31.0625L17.75 36.6094H22.1875Z" fill="#FCE0B9"/>
<path d="M23.6275 45.4844H27.4049C28.349 45.4844 29.2786 45.247 30.1073 44.7921L31.0625 44.2685V44.2374V44.2685L35.3236 41.9333C36.8412 40.6686 37.7188 38.7948 37.7188 36.8202V31.0625L33.2812 36.6094H28.8438C28.8438 38.4476 27.3539 39.9375 25.5156 39.9375C23.6774 39.9375 22.1875 38.4476 22.1875 36.6094H17.75L13.3125 31.0625V36.8202C13.3125 38.796 14.19 40.6686 15.7076 41.9333L19.9688 44.2685V44.2374V44.2685L20.925 44.7921C21.7537 45.247 22.6823 45.4844 23.6275 45.4844Z" fill="#4C3D24"/>
<path d="M36.6094 63.2344V50.045L31.0625 48.8125V51.2642C28.1759 54.7277 22.8553 54.7277 19.9688 51.2642V48.8125L14.4219 50.045V63.2344H36.6094Z" fill="white"/>
<path d="M41.0469 67.6719H47.7031V57.6875C47.7031 54.011 44.7233 51.0312 41.0469 51.0312V63.2344V67.6719Z" fill="white"/>
<path d="M66.5625 42.1562L48.8125 41.0469V45.4844H66.5625V42.1562Z" fill="#606060"/>
<path d="M48.8125 48.8125L51.0312 67.6719H64.3438L66.1665 52.1806L66.5625 48.8125H48.8125Z" fill="#C49E5C"/>
<path d="M14.9022 18.0773C15.7687 14.9011 19.4529 13.4589 22.2452 15.204L22.73 15.5068C24.4162 16.5608 26.5706 16.4942 28.1892 15.3382C30.7807 13.4867 34.4228 14.5539 35.6054 17.5115L37.7188 25.5156H39.3828H39.9375V21.0781C39.9375 13.1128 33.4809 6.65625 25.5156 6.65625C17.5503 6.65625 11.0938 13.1128 11.0938 21.0781V25.5156H11.6484H13.3125L14.9022 18.0773Z" fill="#4C3D24"/>
<path d="M48.8125 45.4844H47.7031V48.8125H48.8125H66.5625H67.6719V45.4844H66.5625H48.8125Z" fill="#606060"/>
<path d="M55.4687 9.98438C55.4687 6.30791 52.9848 3.32812 49.9218 3.32812L50.5043 5.6567C50.8315 6.96577 50.4477 8.35027 49.4936 9.30322C48.4075 10.3893 48.0725 12.019 48.6438 13.4445L49.9218 16.6406C52.9848 16.6406 55.4687 13.6608 55.4687 9.98438Z" fill="#D3A06C"/>
<path d="M49.4937 9.30322C50.4477 8.34916 50.8305 6.96466 50.5043 5.6567L49.9219 3.32812C46.8589 3.32812 44.375 6.30791 44.375 9.98438C44.375 13.6608 46.8589 16.6406 49.9219 16.6406L48.6439 13.4445C48.0725 12.019 48.4076 10.3893 49.4937 9.30322Z" fill="#D3A06C"/>
<path d="M62.4654 14.7247L63.049 17.0522C63.3773 18.3602 62.9946 19.7458 62.0417 20.6998C60.9567 21.787 60.6228 23.4167 61.1952 24.8422L62.4765 28.0372C65.5395 28.035 68.0212 25.053 68.0179 21.3765C68.0145 17.7001 65.5284 14.7214 62.4654 14.7247Z" fill="#D3A06C"/>
<path d="M62.0419 20.6998C62.9948 19.7447 63.3776 18.3602 63.0492 17.0522L62.4657 14.7247C59.4027 14.727 56.921 17.709 56.9243 21.3854C56.9276 25.0619 59.4127 28.0395 62.4767 28.0372L61.1954 24.8422C60.623 23.4167 60.9569 21.787 62.0419 20.6998Z" fill="#D3A06C"/>
<path d="M25.5156 6.65625C27.8164 6.65625 29.9841 7.20872 31.9144 8.16833C31.1235 5.37603 28.5608 3.32812 25.5156 3.32812C22.4703 3.32812 19.9077 5.37603 19.1167 8.16833C21.047 7.20872 23.2147 6.65625 25.5156 6.65625Z" fill="#3D311D"/>
<path d="M19.9688 50.754L31.0625 45.7618V44.2686L30.1062 44.7922C29.2775 45.247 28.349 45.4844 27.4038 45.4844H23.6264C22.6823 45.4844 21.7526 45.247 20.9239 44.7922L19.9688 44.2686V48.8126V50.754Z" fill="#F5CBA1"/>
<path d="M25.5156 6.65625C17.5503 6.65625 11.0938 13.1128 11.0938 21.0781V23.2969C11.0938 15.3316 17.5503 8.875 25.5156 8.875C33.4809 8.875 39.9375 15.3316 39.9375 23.2969V21.0781C39.9375 13.1128 33.4809 6.65625 25.5156 6.65625Z" fill="#5E4C2D"/>
<path d="M48.8125 48.8125L51.0312 67.6719L51.6935 64.8019C53.2844 57.9094 59.1219 52.8185 66.1665 52.1806L66.5625 48.8125H48.8125Z" fill="#A6864E"/>
<path d="M35.3236 39.7146L31.0625 42.0498L30.1062 42.5734C29.2775 43.0283 28.349 43.2657 27.4038 43.2657H23.6264C22.6823 43.2657 21.7526 43.0283 20.9239 42.5734L19.9688 42.0498L15.7076 39.7146C14.19 38.4499 13.3125 36.5761 13.3125 34.6014V36.8202C13.3125 38.796 14.19 40.6686 15.7076 41.9333L19.9688 44.2685L20.925 44.7922C21.7537 45.247 22.6823 45.4844 23.6275 45.4844H27.4049C28.349 45.4844 29.2786 45.247 30.1073 44.7922L31.0625 44.2685L35.3236 41.9333C36.8412 40.6686 37.7188 38.7949 37.7188 36.8202V34.6014C37.7188 36.5761 36.8412 38.4499 35.3236 39.7146Z" fill="#3D311D"/>
<path d="M19.9688 30.7852C18.8982 30.7852 18.0273 29.9143 18.0273 28.8438C18.0273 27.7732 18.8982 26.9023 19.9688 26.9023C21.0393 26.9023 21.9102 27.7732 21.9102 28.8438C21.9102 29.9143 21.0393 30.7852 19.9688 30.7852ZM19.9688 28.5664C19.8157 28.5664 19.6914 28.6907 19.6914 28.8438C19.6914 29.1488 20.2461 29.1488 20.2461 28.8438C20.2461 28.6907 20.1218 28.5664 19.9688 28.5664Z" fill="black"/>
<path d="M31.0625 30.7852C29.992 30.7852 29.1211 29.9143 29.1211 28.8438C29.1211 27.7732 29.992 26.9023 31.0625 26.9023C32.133 26.9023 33.0039 27.7732 33.0039 28.8438C33.0039 29.9143 32.133 30.7852 31.0625 30.7852ZM31.0625 28.5664C30.9094 28.5664 30.7852 28.6907 30.7852 28.8438C30.7852 29.1488 31.3398 29.1488 31.3398 28.8438C31.3398 28.6907 31.2156 28.5664 31.0625 28.5664Z" fill="black"/>
<path d="M25.5156 40.7695C23.2225 40.7695 21.3555 38.9036 21.3555 36.6094H23.0195C23.0195 37.9861 24.14 39.1055 25.5156 39.1055C26.8913 39.1055 28.0117 37.9861 28.0117 36.6094H29.6758C29.6758 38.9036 27.8087 40.7695 25.5156 40.7695Z" fill="black"/>
<path d="M67.6719 44.375V42.1562C67.6719 41.5705 67.217 41.0857 66.6313 41.0491L48.8813 39.9397C48.5784 39.9186 48.2756 40.0296 48.0526 40.2381C47.8296 40.4478 47.7031 40.7407 47.7031 41.0469V44.375C47.0896 44.375 46.5938 44.872 46.5938 45.4844V48.8125C46.5938 49.4249 47.0896 49.9219 47.7031 49.9219H47.8263L48.4719 55.4111C47.509 52.2749 44.6091 49.9785 41.1733 49.923L32.1719 47.9228V44.9252L35.8561 42.9062C35.9193 42.8718 35.9781 42.8319 36.0336 42.7853C37.8097 41.3054 38.8281 39.131 38.8281 36.8202V32.1719H39.3828C41.5239 32.1719 43.2656 30.4302 43.2656 28.2891C43.2656 26.7459 42.3537 25.4213 41.0469 24.7956V21.0781C41.0469 15.1441 37.6988 9.98105 32.7942 7.36736C31.696 4.31769 28.7894 2.21875 25.5156 2.21875C22.2419 2.21875 19.3353 4.31769 18.237 7.36736C13.3325 9.98105 9.98438 15.1441 9.98438 21.0781V24.7956C8.67753 25.4213 7.76562 26.7459 7.76562 28.2891C7.76562 30.4302 9.50734 32.1719 11.6484 32.1719H12.2031V36.8202C12.2031 39.131 13.2215 41.3054 14.9976 42.7853C15.0531 42.8319 15.113 42.8718 15.1751 42.9062L18.8594 44.9252V47.9228L9.85791 49.923C5.63341 49.9907 2.21875 53.4475 2.21875 57.6875V67.6719C2.21875 68.2842 2.71464 68.7812 3.32812 68.7812H47.7031C48.3166 68.7812 48.8125 68.2842 48.8125 67.6719V58.3076L49.9296 67.8017C49.9951 68.3608 50.4688 68.7812 51.0312 68.7812H64.3438C64.9062 68.7812 65.3799 68.3608 65.4454 67.8017L67.5487 49.9219H67.6719C68.2854 49.9219 68.7812 49.4249 68.7812 48.8125V45.4844C68.7812 44.872 68.2854 44.375 67.6719 44.375ZM13.3125 62.125H11.0938V51.921L13.3125 51.4284V62.125ZM11.0938 64.3438H14.4219H36.6094H39.9375V66.5625H11.0938V64.3438ZM39.9375 62.125H37.7188V51.4284L39.9375 51.921V62.125ZM21.0781 46.0868C21.8846 46.4174 22.7522 46.5938 23.6275 46.5938H27.4038C28.2791 46.5938 29.1466 46.4174 29.9531 46.0868V50.8438C28.8016 52.0619 27.2041 52.753 25.5156 52.753C23.8272 52.753 22.2297 52.0619 21.0781 50.8438V46.0868ZM25.5156 4.4375C27.01 4.4375 28.3989 5.0532 29.4151 6.06273C28.167 5.73769 26.8646 5.54688 25.5156 5.54688C24.1666 5.54688 22.8642 5.73769 21.6162 6.06273C22.6324 5.0532 24.0213 4.4375 25.5156 4.4375ZM12.2031 21.0781C12.2031 13.7374 18.1749 7.76562 25.5156 7.76562C32.8564 7.76562 38.8281 13.7374 38.8281 21.0781V24.4062H38.5741L36.6782 17.2286C36.666 17.1842 36.6526 17.1421 36.636 17.0999C35.9449 15.3715 34.5238 14.0813 32.7377 13.5577C30.9549 13.0352 29.059 13.3547 27.5447 14.4363C26.2866 15.3349 24.627 15.3848 23.3168 14.5661L22.832 14.2643C21.2013 13.2459 19.241 13.0618 17.4471 13.7629C15.6555 14.464 14.3376 15.9306 13.8173 17.8465L12.415 24.4062H12.2031V21.0781ZM11.6484 29.9531C10.731 29.9531 9.98438 29.2065 9.98438 28.2891C9.98438 27.3716 10.731 26.625 11.6484 26.625H13.3125C13.8361 26.625 14.2876 26.2589 14.3975 25.7475L15.9728 18.369C16.2923 17.1964 17.1254 16.2701 18.257 15.8275C19.3897 15.3848 20.6277 15.5002 21.6583 16.1447L22.1431 16.4465C24.2165 17.7433 26.8424 17.6624 28.8349 16.2401C29.7912 15.5579 30.9848 15.3549 32.1142 15.6855C33.2213 16.0094 34.1066 16.8015 34.5515 17.8632L36.6471 25.7974C36.7747 26.2855 37.2151 26.625 37.7188 26.625H39.3828C40.3003 26.625 41.0469 27.3716 41.0469 28.2891C41.0469 29.2065 40.3003 29.9531 39.3828 29.9531H38.8281V27.7344H36.6094V30.6731L32.7488 35.5H18.2825L14.4219 30.6731V27.7344H12.2031V29.9531H11.6484ZM14.4219 36.8202V34.2253L16.8836 37.3027C17.0944 37.5657 17.4128 37.7188 17.75 37.7188H33.2812C33.6185 37.7188 33.9369 37.5657 34.1477 37.3027L36.6094 34.2253V36.8202C36.6094 38.4365 35.9116 39.9597 34.6913 41.0147L29.5726 43.8203C28.9092 44.1842 28.1604 44.375 27.4038 44.375H23.6275C22.8709 44.375 22.122 44.1831 21.4586 43.8203L16.34 41.0158C15.1197 39.9597 14.4219 38.4365 14.4219 36.8202ZM19.1156 51.9753C20.7043 53.8801 23.0362 54.9729 25.5156 54.9729C27.9951 54.9729 30.327 53.8812 31.9156 51.9753C32.0809 51.7756 32.1719 51.5238 32.1719 51.2642V50.1948L35.5 50.9347V62.125H15.5312V50.9347L18.8594 50.1948V51.2642C18.8594 51.5238 18.9503 51.7756 19.1156 51.9753ZM4.4375 57.6875C4.4375 55.0095 6.34673 52.7685 8.875 52.2527V66.5625H4.4375V57.6875ZM46.5938 66.5625H42.1562V52.2527C44.6845 52.7685 46.5938 55.0084 46.5938 57.6875V66.5625ZM49.9219 42.2272L65.4531 43.198V44.375H49.9219V42.2272ZM66.5625 47.7031H48.8125V46.5938H66.5625V47.7031ZM63.6548 64.0309C61.4583 63.2776 59.9062 61.1976 59.9062 58.7969C59.9062 55.9225 62.1128 53.5784 64.9173 53.3044L63.6548 64.0309ZM65.1824 51.0446C61.0267 51.1888 57.6875 54.6057 57.6875 58.7969C57.6875 62.3225 60.0749 65.3577 63.3908 66.2707L63.3564 66.5625H52.0186L50.0605 49.9219H65.3156L65.1824 51.0446Z" fill="black"/>
<path d="M45.9139 36.9344L47.4825 38.5031L48.6574 37.3293C49.4262 36.5594 49.8244 35.4955 49.7457 34.4095C49.6691 33.3234 49.1244 32.3272 48.2547 31.6749C47.6035 31.1867 47.447 30.2737 47.8986 29.597L48.7306 28.349L46.8846 27.1187L46.0526 28.3667C44.9487 30.0219 45.3315 32.2539 46.9234 33.4499C47.284 33.7205 47.5014 34.1177 47.5325 34.567C47.5646 35.0174 47.4071 35.4412 47.0887 35.7596L45.9139 36.9344Z" fill="black"/>
<path d="M50.5174 30.2782L52.0861 31.8468L53.2609 30.6731C54.0297 29.9032 54.428 28.8393 54.3492 27.7532C54.2727 26.6671 53.7279 25.6709 52.8582 25.0186C52.207 24.5305 52.0506 23.6175 52.5021 22.9407L53.3341 21.6927L51.4881 20.4624L50.6561 21.7104C49.5522 23.3656 49.935 25.5977 51.5269 26.7936C51.8875 27.0643 52.1049 27.4615 52.136 27.9107C52.1682 28.3612 52.0106 28.7849 51.6922 29.1033L50.5174 30.2782Z" fill="black"/>
<path d="M49.9219 2.21875C46.251 2.21875 43.2656 5.70219 43.2656 9.98438C43.2656 14.2666 46.251 17.75 49.9219 17.75C53.5928 17.75 56.5781 14.2666 56.5781 9.98438C56.5781 5.70219 53.5928 2.21875 49.9219 2.21875ZM45.4844 9.98438C45.4844 7.28527 47.0364 5.03545 49.0821 4.544L49.4271 5.92628C49.6578 6.85039 49.3827 7.84439 48.7093 8.51889C47.306 9.92114 46.8766 12.0168 47.6133 13.8572L48.0759 15.0132C46.5505 14.1334 45.4844 12.2175 45.4844 9.98438ZM50.6374 15.4414L49.6745 13.0329C49.2685 12.0179 49.5059 10.8619 50.2791 10.0875C51.5016 8.86502 51.9997 7.06339 51.5804 5.38713L51.4306 4.78917C53.1335 5.56462 54.3594 7.59034 54.3594 9.98438C54.3594 12.7367 52.743 15.0098 50.6374 15.4414Z" fill="black"/>
<path d="M62.469 13.6143C62.4679 13.6143 62.4657 13.6143 62.4645 13.6143C58.7936 13.6176 55.8116 17.1032 55.8149 21.3854C55.8183 25.6654 58.8047 29.1455 62.4723 29.1455H62.4779C64.295 29.1444 65.989 28.309 67.2504 26.7925C68.4629 25.3359 69.1297 23.4111 69.1275 21.3743C69.1241 17.0955 66.1366 13.6143 62.469 13.6143ZM58.0337 21.3832C58.0315 18.6841 59.5813 16.4343 61.627 15.9395L61.9731 17.3207C62.2049 18.2459 61.9309 19.2399 61.2564 19.9144C59.8553 21.3178 59.4282 23.4134 60.167 25.2538L60.6307 26.4098C59.1031 25.5345 58.0348 23.6175 58.0337 21.3832ZM65.5442 25.3747C64.8885 26.1635 64.0698 26.6605 63.1912 26.8413L62.2249 24.4296C61.8178 23.4134 62.0541 22.2574 62.8262 21.4831C64.0487 20.2594 64.5457 18.4589 64.1253 16.7815L63.9755 16.1847C65.6784 16.959 66.9065 18.9836 66.9087 21.3766C66.9098 22.8964 66.425 24.3153 65.5442 25.3747Z" fill="black"/>
</svg>
