<svg width="618" height="70" viewBox="0 0 618 70" fill="none" xmlns="http://www.w3.org/2000/svg">
<rect width="618" height="70" fill="#4D3D2E"/>
<path d="M76.8612 31.242L73.6832 37.318V41H72.4092V37.318L69.2172 31.242H70.6312L73.0392 36.184L75.4472 31.242H76.8612ZM85.205 36.87C85.205 37.1127 85.191 37.3693 85.163 37.64H79.031C79.0776 38.396 79.3343 38.9887 79.801 39.418C80.277 39.838 80.851 40.048 81.523 40.048C82.0736 40.048 82.531 39.922 82.895 39.67C83.2683 39.4087 83.5296 39.0633 83.679 38.634H85.051C84.8456 39.3713 84.435 39.9733 83.819 40.44C83.203 40.8973 82.4376 41.126 81.523 41.126C80.795 41.126 80.1416 40.9627 79.563 40.636C78.9936 40.3093 78.5456 39.8473 78.219 39.25C77.8923 38.6433 77.729 37.9433 77.729 37.15C77.729 36.3567 77.8876 35.6613 78.205 35.064C78.5223 34.4667 78.9656 34.0093 79.535 33.692C80.1136 33.3653 80.7763 33.202 81.523 33.202C82.251 33.202 82.895 33.3607 83.455 33.678C84.015 33.9953 84.4443 34.434 84.743 34.994C85.051 35.5447 85.205 36.17 85.205 36.87ZM83.889 36.604C83.889 36.1187 83.7816 35.7033 83.567 35.358C83.3523 35.0033 83.0583 34.7373 82.685 34.56C82.321 34.3733 81.915 34.28 81.467 34.28C80.823 34.28 80.2723 34.4853 79.815 34.896C79.367 35.3067 79.1103 35.876 79.045 36.604H83.889ZM86.4106 37.136C86.4106 36.352 86.5693 35.666 86.8866 35.078C87.2039 34.4807 87.6379 34.0187 88.1886 33.692C88.7486 33.3653 89.3693 33.202 90.0506 33.202C90.7226 33.202 91.3059 33.3467 91.8006 33.636C92.2953 33.9253 92.6639 34.2893 92.9066 34.728V33.328H94.1946V41H92.9066V39.572C92.6546 40.02 92.2766 40.3933 91.7726 40.692C91.2779 40.9813 90.6993 41.126 90.0366 41.126C89.3553 41.126 88.7393 40.958 88.1886 40.622C87.6379 40.286 87.2039 39.8147 86.8866 39.208C86.5693 38.6013 86.4106 37.9107 86.4106 37.136ZM92.9066 37.15C92.9066 36.5713 92.7899 36.0673 92.5566 35.638C92.3233 35.2087 92.0059 34.882 91.6046 34.658C91.2126 34.4247 90.7786 34.308 90.3026 34.308C89.8266 34.308 89.3926 34.42 89.0006 34.644C88.6086 34.868 88.2959 35.1947 88.0626 35.624C87.8293 36.0533 87.7126 36.5573 87.7126 37.136C87.7126 37.724 87.8293 38.2373 88.0626 38.676C88.2959 39.1053 88.6086 39.4367 89.0006 39.67C89.3926 39.894 89.8266 40.006 90.3026 40.006C90.7786 40.006 91.2126 39.894 91.6046 39.67C92.0059 39.4367 92.3233 39.1053 92.5566 38.676C92.7899 38.2373 92.9066 37.7287 92.9066 37.15ZM97.6215 34.574C97.8455 34.1353 98.1629 33.7947 98.5735 33.552C98.9935 33.3093 99.5022 33.188 100.1 33.188V34.504H99.7635C98.3355 34.504 97.6215 35.2787 97.6215 36.828V41H96.3475V33.328H97.6215V34.574ZM104.286 41.126C103.698 41.126 103.171 41.028 102.704 40.832C102.238 40.6267 101.869 40.3467 101.598 39.992C101.328 39.628 101.178 39.2127 101.15 38.746H102.466C102.504 39.1287 102.681 39.4413 102.998 39.684C103.325 39.9267 103.75 40.048 104.272 40.048C104.758 40.048 105.14 39.9407 105.42 39.726C105.7 39.5113 105.84 39.2407 105.84 38.914C105.84 38.578 105.691 38.3307 105.392 38.172C105.094 38.004 104.632 37.8407 104.006 37.682C103.437 37.5327 102.97 37.3833 102.606 37.234C102.252 37.0753 101.944 36.8467 101.682 36.548C101.43 36.24 101.304 35.8387 101.304 35.344C101.304 34.952 101.421 34.5927 101.654 34.266C101.888 33.9393 102.219 33.6827 102.648 33.496C103.078 33.3 103.568 33.202 104.118 33.202C104.968 33.202 105.654 33.4167 106.176 33.846C106.699 34.2753 106.979 34.8633 107.016 35.61H105.742C105.714 35.2087 105.551 34.8867 105.252 34.644C104.963 34.4013 104.571 34.28 104.076 34.28C103.619 34.28 103.255 34.378 102.984 34.574C102.714 34.77 102.578 35.0267 102.578 35.344C102.578 35.596 102.658 35.806 102.816 35.974C102.984 36.1327 103.19 36.2633 103.432 36.366C103.684 36.4593 104.03 36.5667 104.468 36.688C105.019 36.8373 105.467 36.9867 105.812 37.136C106.158 37.276 106.452 37.4907 106.694 37.78C106.946 38.0693 107.077 38.4473 107.086 38.914C107.086 39.334 106.97 39.712 106.736 40.048C106.503 40.384 106.172 40.65 105.742 40.846C105.322 41.0327 104.837 41.126 104.286 41.126ZM113.891 32.278V35.54H117.447V36.59H113.891V39.95H117.867V41H112.617V31.228H117.867V32.278H113.891ZM123.799 41L121.979 38.144L120.229 41H118.899L121.377 37.192L118.899 33.328H120.341L122.161 36.17L123.897 33.328H125.227L122.763 37.122L125.241 41H123.799ZM127.768 34.742C128.02 34.3033 128.393 33.9393 128.888 33.65C129.392 33.3513 129.975 33.202 130.638 33.202C131.319 33.202 131.935 33.3653 132.486 33.692C133.046 34.0187 133.485 34.4807 133.802 35.078C134.119 35.666 134.278 36.352 134.278 37.136C134.278 37.9107 134.119 38.6013 133.802 39.208C133.485 39.8147 133.046 40.286 132.486 40.622C131.935 40.958 131.319 41.126 130.638 41.126C129.985 41.126 129.406 40.9813 128.902 40.692C128.407 40.3933 128.029 40.0247 127.768 39.586V44.64H126.494V33.328H127.768V34.742ZM132.976 37.136C132.976 36.5573 132.859 36.0533 132.626 35.624C132.393 35.1947 132.075 34.868 131.674 34.644C131.282 34.42 130.848 34.308 130.372 34.308C129.905 34.308 129.471 34.4247 129.07 34.658C128.678 34.882 128.361 35.2133 128.118 35.652C127.885 36.0813 127.768 36.5807 127.768 37.15C127.768 37.7287 127.885 38.2373 128.118 38.676C128.361 39.1053 128.678 39.4367 129.07 39.67C129.471 39.894 129.905 40.006 130.372 40.006C130.848 40.006 131.282 39.894 131.674 39.67C132.075 39.4367 132.393 39.1053 132.626 38.676C132.859 38.2373 132.976 37.724 132.976 37.136ZM142.955 36.87C142.955 37.1127 142.941 37.3693 142.913 37.64H136.781C136.828 38.396 137.084 38.9887 137.551 39.418C138.027 39.838 138.601 40.048 139.273 40.048C139.824 40.048 140.281 39.922 140.645 39.67C141.018 39.4087 141.28 39.0633 141.429 38.634H142.801C142.596 39.3713 142.185 39.9733 141.569 40.44C140.953 40.8973 140.188 41.126 139.273 41.126C138.545 41.126 137.892 40.9627 137.313 40.636C136.744 40.3093 136.296 39.8473 135.969 39.25C135.642 38.6433 135.479 37.9433 135.479 37.15C135.479 36.3567 135.638 35.6613 135.955 35.064C136.272 34.4667 136.716 34.0093 137.285 33.692C137.864 33.3653 138.526 33.202 139.273 33.202C140.001 33.202 140.645 33.3607 141.205 33.678C141.765 33.9953 142.194 34.434 142.493 34.994C142.801 35.5447 142.955 36.17 142.955 36.87ZM141.639 36.604C141.639 36.1187 141.532 35.7033 141.317 35.358C141.102 35.0033 140.808 34.7373 140.435 34.56C140.071 34.3733 139.665 34.28 139.217 34.28C138.573 34.28 138.022 34.4853 137.565 34.896C137.117 35.3067 136.86 35.876 136.795 36.604H141.639ZM145.911 34.574C146.135 34.1353 146.452 33.7947 146.863 33.552C147.283 33.3093 147.791 33.188 148.389 33.188V34.504H148.053C146.625 34.504 145.911 35.2787 145.911 36.828V41H144.637V33.328H145.911V34.574ZM150.517 32.082C150.275 32.082 150.069 31.998 149.901 31.83C149.733 31.662 149.649 31.4567 149.649 31.214C149.649 30.9713 149.733 30.766 149.901 30.598C150.069 30.43 150.275 30.346 150.517 30.346C150.751 30.346 150.947 30.43 151.105 30.598C151.273 30.766 151.357 30.9713 151.357 31.214C151.357 31.4567 151.273 31.662 151.105 31.83C150.947 31.998 150.751 32.082 150.517 32.082ZM151.133 33.328V41H149.859V33.328H151.133ZM160.305 36.87C160.305 37.1127 160.291 37.3693 160.263 37.64H154.131C154.177 38.396 154.434 38.9887 154.901 39.418C155.377 39.838 155.951 40.048 156.623 40.048C157.173 40.048 157.631 39.922 157.995 39.67C158.368 39.4087 158.629 39.0633 158.779 38.634H160.151C159.945 39.3713 159.535 39.9733 158.919 40.44C158.303 40.8973 157.537 41.126 156.623 41.126C155.895 41.126 155.241 40.9627 154.663 40.636C154.093 40.3093 153.645 39.8473 153.319 39.25C152.992 38.6433 152.829 37.9433 152.829 37.15C152.829 36.3567 152.987 35.6613 153.305 35.064C153.622 34.4667 154.065 34.0093 154.635 33.692C155.213 33.3653 155.876 33.202 156.623 33.202C157.351 33.202 157.995 33.3607 158.555 33.678C159.115 33.9953 159.544 34.434 159.843 34.994C160.151 35.5447 160.305 36.17 160.305 36.87ZM158.989 36.604C158.989 36.1187 158.881 35.7033 158.667 35.358C158.452 35.0033 158.158 34.7373 157.785 34.56C157.421 34.3733 157.015 34.28 156.567 34.28C155.923 34.28 155.372 34.4853 154.915 34.896C154.467 35.3067 154.21 35.876 154.145 36.604H158.989ZM165.724 33.188C166.658 33.188 167.414 33.4727 167.992 34.042C168.571 34.602 168.86 35.414 168.86 36.478V41H167.6V36.66C167.6 35.8947 167.409 35.3113 167.026 34.91C166.644 34.4993 166.121 34.294 165.458 34.294C164.786 34.294 164.25 34.504 163.848 34.924C163.456 35.344 163.26 35.9553 163.26 36.758V41H161.986V33.328H163.26V34.42C163.512 34.028 163.853 33.7247 164.282 33.51C164.721 33.2953 165.202 33.188 165.724 33.188ZM170.465 37.15C170.465 36.3567 170.624 35.666 170.941 35.078C171.259 34.4807 171.697 34.0187 172.257 33.692C172.827 33.3653 173.475 33.202 174.203 33.202C175.146 33.202 175.921 33.4307 176.527 33.888C177.143 34.3453 177.549 34.98 177.745 35.792H176.373C176.243 35.3253 175.986 34.9567 175.603 34.686C175.23 34.4153 174.763 34.28 174.203 34.28C173.475 34.28 172.887 34.532 172.439 35.036C171.991 35.5307 171.767 36.2353 171.767 37.15C171.767 38.074 171.991 38.788 172.439 39.292C172.887 39.796 173.475 40.048 174.203 40.048C174.763 40.048 175.23 39.9173 175.603 39.656C175.977 39.3947 176.233 39.0213 176.373 38.536H177.745C177.54 39.32 177.129 39.95 176.513 40.426C175.897 40.8927 175.127 41.126 174.203 41.126C173.475 41.126 172.827 40.9627 172.257 40.636C171.697 40.3093 171.259 39.8473 170.941 39.25C170.624 38.6527 170.465 37.9527 170.465 37.15ZM186.445 36.87C186.445 37.1127 186.431 37.3693 186.403 37.64H180.271C180.318 38.396 180.575 38.9887 181.041 39.418C181.517 39.838 182.091 40.048 182.763 40.048C183.314 40.048 183.771 39.922 184.135 39.67C184.509 39.4087 184.77 39.0633 184.919 38.634H186.291C186.086 39.3713 185.675 39.9733 185.059 40.44C184.443 40.8973 183.678 41.126 182.763 41.126C182.035 41.126 181.382 40.9627 180.803 40.636C180.234 40.3093 179.786 39.8473 179.459 39.25C179.133 38.6433 178.969 37.9433 178.969 37.15C178.969 36.3567 179.128 35.6613 179.445 35.064C179.763 34.4667 180.206 34.0093 180.775 33.692C181.354 33.3653 182.017 33.202 182.763 33.202C183.491 33.202 184.135 33.3607 184.695 33.678C185.255 33.9953 185.685 34.434 185.983 34.994C186.291 35.5447 186.445 36.17 186.445 36.87ZM185.129 36.604C185.129 36.1187 185.022 35.7033 184.807 35.358C184.593 35.0033 184.299 34.7373 183.925 34.56C183.561 34.3733 183.155 34.28 182.707 34.28C182.063 34.28 181.513 34.4853 181.055 34.896C180.607 35.3067 180.351 35.876 180.285 36.604H185.129Z" fill="#FFFDF8"/>
<path d="M57.3816 30.164L52.8636 41H49.7136L54.2856 30.506H48.6876V27.878H57.3816V30.164Z" fill="#FFFDF8"/>
<path d="M287.782 36.114C287.782 35.162 287.996 34.308 288.426 33.552C288.855 32.7867 289.438 32.1893 290.176 31.76C290.922 31.3307 291.748 31.116 292.654 31.116C293.718 31.116 294.646 31.3727 295.44 31.886C296.233 32.3993 296.812 33.1273 297.176 34.07H295.65C295.379 33.482 294.987 33.0293 294.474 32.712C293.97 32.3947 293.363 32.236 292.654 32.236C291.972 32.236 291.361 32.3947 290.82 32.712C290.278 33.0293 289.854 33.482 289.546 34.07C289.238 34.6487 289.084 35.33 289.084 36.114C289.084 36.8887 289.238 37.57 289.546 38.158C289.854 38.7367 290.278 39.1847 290.82 39.502C291.361 39.8193 291.972 39.978 292.654 39.978C293.363 39.978 293.97 39.824 294.474 39.516C294.987 39.1987 295.379 38.746 295.65 38.158H297.176C296.812 39.0913 296.233 39.8147 295.44 40.328C294.646 40.832 293.718 41.084 292.654 41.084C291.748 41.084 290.922 40.874 290.176 40.454C289.438 40.0247 288.855 39.432 288.426 38.676C287.996 37.92 287.782 37.066 287.782 36.114ZM302.418 41.126C301.699 41.126 301.046 40.9627 300.458 40.636C299.879 40.3093 299.422 39.8473 299.086 39.25C298.759 38.6433 298.596 37.9433 298.596 37.15C298.596 36.366 298.764 35.6753 299.1 35.078C299.445 34.4713 299.912 34.0093 300.5 33.692C301.088 33.3653 301.746 33.202 302.474 33.202C303.202 33.202 303.86 33.3653 304.448 33.692C305.036 34.0093 305.498 34.4667 305.834 35.064C306.179 35.6613 306.352 36.3567 306.352 37.15C306.352 37.9433 306.175 38.6433 305.82 39.25C305.475 39.8473 305.003 40.3093 304.406 40.636C303.809 40.9627 303.146 41.126 302.418 41.126ZM302.418 40.006C302.875 40.006 303.305 39.8987 303.706 39.684C304.107 39.4693 304.429 39.1473 304.672 38.718C304.924 38.2887 305.05 37.766 305.05 37.15C305.05 36.534 304.929 36.0113 304.686 35.582C304.443 35.1527 304.126 34.8353 303.734 34.63C303.342 34.4153 302.917 34.308 302.46 34.308C301.993 34.308 301.564 34.4153 301.172 34.63C300.789 34.8353 300.481 35.1527 300.248 35.582C300.015 36.0113 299.898 36.534 299.898 37.15C299.898 37.7753 300.01 38.3027 300.234 38.732C300.467 39.1613 300.775 39.4833 301.158 39.698C301.541 39.9033 301.961 40.006 302.418 40.006ZM311.149 34.378H309.539V41H308.265V34.378H307.271V33.328H308.265V32.782C308.265 31.9233 308.485 31.298 308.923 30.906C309.371 30.5047 310.085 30.304 311.065 30.304V31.368C310.505 31.368 310.109 31.48 309.875 31.704C309.651 31.9187 309.539 32.278 309.539 32.782V33.328H311.149V34.378ZM315.757 34.378H314.147V41H312.873V34.378H311.879V33.328H312.873V32.782C312.873 31.9233 313.092 31.298 313.531 30.906C313.979 30.5047 314.693 30.304 315.673 30.304V31.368C315.113 31.368 314.716 31.48 314.483 31.704C314.259 31.9187 314.147 32.278 314.147 32.782V33.328H315.757V34.378ZM324.242 36.87C324.242 37.1127 324.228 37.3693 324.2 37.64H318.068C318.115 38.396 318.371 38.9887 318.838 39.418C319.314 39.838 319.888 40.048 320.56 40.048C321.111 40.048 321.568 39.922 321.932 39.67C322.305 39.4087 322.567 39.0633 322.716 38.634H324.088C323.883 39.3713 323.472 39.9733 322.856 40.44C322.24 40.8973 321.475 41.126 320.56 41.126C319.832 41.126 319.179 40.9627 318.6 40.636C318.031 40.3093 317.583 39.8473 317.256 39.25C316.929 38.6433 316.766 37.9433 316.766 37.15C316.766 36.3567 316.925 35.6613 317.242 35.064C317.559 34.4667 318.003 34.0093 318.572 33.692C319.151 33.3653 319.813 33.202 320.56 33.202C321.288 33.202 321.932 33.3607 322.492 33.678C323.052 33.9953 323.481 34.434 323.78 34.994C324.088 35.5447 324.242 36.17 324.242 36.87ZM322.926 36.604C322.926 36.1187 322.819 35.7033 322.604 35.358C322.389 35.0033 322.095 34.7373 321.722 34.56C321.358 34.3733 320.952 34.28 320.504 34.28C319.86 34.28 319.309 34.4853 318.852 34.896C318.404 35.3067 318.147 35.876 318.082 36.604H322.926ZM332.924 36.87C332.924 37.1127 332.91 37.3693 332.882 37.64H326.75C326.796 38.396 327.053 38.9887 327.52 39.418C327.996 39.838 328.57 40.048 329.242 40.048C329.792 40.048 330.25 39.922 330.614 39.67C330.987 39.4087 331.248 39.0633 331.398 38.634H332.77C332.564 39.3713 332.154 39.9733 331.538 40.44C330.922 40.8973 330.156 41.126 329.242 41.126C328.514 41.126 327.86 40.9627 327.282 40.636C326.712 40.3093 326.264 39.8473 325.938 39.25C325.611 38.6433 325.448 37.9433 325.448 37.15C325.448 36.3567 325.606 35.6613 325.924 35.064C326.241 34.4667 326.684 34.0093 327.254 33.692C327.832 33.3653 328.495 33.202 329.242 33.202C329.97 33.202 330.614 33.3607 331.174 33.678C331.734 33.9953 332.163 34.434 332.462 34.994C332.77 35.5447 332.924 36.17 332.924 36.87ZM331.608 36.604C331.608 36.1187 331.5 35.7033 331.286 35.358C331.071 35.0033 330.777 34.7373 330.404 34.56C330.04 34.3733 329.634 34.28 329.186 34.28C328.542 34.28 327.991 34.4853 327.534 34.896C327.086 35.3067 326.829 35.876 326.764 36.604H331.608ZM337.862 36.114C337.862 35.162 338.076 34.308 338.506 33.552C338.935 32.7867 339.518 32.1893 340.256 31.76C341.002 31.3307 341.828 31.116 342.734 31.116C343.798 31.116 344.726 31.3727 345.52 31.886C346.313 32.3993 346.892 33.1273 347.256 34.07H345.73C345.459 33.482 345.067 33.0293 344.554 32.712C344.05 32.3947 343.443 32.236 342.734 32.236C342.052 32.236 341.441 32.3947 340.9 32.712C340.358 33.0293 339.934 33.482 339.626 34.07C339.318 34.6487 339.164 35.33 339.164 36.114C339.164 36.8887 339.318 37.57 339.626 38.158C339.934 38.7367 340.358 39.1847 340.9 39.502C341.441 39.8193 342.052 39.978 342.734 39.978C343.443 39.978 344.05 39.824 344.554 39.516C345.067 39.1987 345.459 38.746 345.73 38.158H347.256C346.892 39.0913 346.313 39.8147 345.52 40.328C344.726 40.832 343.798 41.084 342.734 41.084C341.828 41.084 341.002 40.874 340.256 40.454C339.518 40.0247 338.935 39.432 338.506 38.676C338.076 37.92 337.862 37.066 337.862 36.114ZM352.498 41.126C351.78 41.126 351.126 40.9627 350.538 40.636C349.96 40.3093 349.502 39.8473 349.166 39.25C348.84 38.6433 348.676 37.9433 348.676 37.15C348.676 36.366 348.844 35.6753 349.18 35.078C349.526 34.4713 349.992 34.0093 350.58 33.692C351.168 33.3653 351.826 33.202 352.554 33.202C353.282 33.202 353.94 33.3653 354.528 33.692C355.116 34.0093 355.578 34.4667 355.914 35.064C356.26 35.6613 356.432 36.3567 356.432 37.15C356.432 37.9433 356.255 38.6433 355.9 39.25C355.555 39.8473 355.084 40.3093 354.486 40.636C353.889 40.9627 353.226 41.126 352.498 41.126ZM352.498 40.006C352.956 40.006 353.385 39.8987 353.786 39.684C354.188 39.4693 354.51 39.1473 354.752 38.718C355.004 38.2887 355.13 37.766 355.13 37.15C355.13 36.534 355.009 36.0113 354.766 35.582C354.524 35.1527 354.206 34.8353 353.814 34.63C353.422 34.4153 352.998 34.308 352.54 34.308C352.074 34.308 351.644 34.4153 351.252 34.63C350.87 34.8353 350.562 35.1527 350.328 35.582C350.095 36.0113 349.978 36.534 349.978 37.15C349.978 37.7753 350.09 38.3027 350.314 38.732C350.548 39.1613 350.856 39.4833 351.238 39.698C351.621 39.9033 352.041 40.006 352.498 40.006ZM361.845 33.188C362.779 33.188 363.535 33.4727 364.113 34.042C364.692 34.602 364.981 35.414 364.981 36.478V41H363.721V36.66C363.721 35.8947 363.53 35.3113 363.147 34.91C362.765 34.4993 362.242 34.294 361.579 34.294C360.907 34.294 360.371 34.504 359.969 34.924C359.577 35.344 359.381 35.9553 359.381 36.758V41H358.107V33.328H359.381V34.42C359.633 34.028 359.974 33.7247 360.403 33.51C360.842 33.2953 361.323 33.188 361.845 33.188ZM369.778 41.126C369.19 41.126 368.663 41.028 368.196 40.832C367.73 40.6267 367.361 40.3467 367.09 39.992C366.82 39.628 366.67 39.2127 366.642 38.746H367.958C367.996 39.1287 368.173 39.4413 368.49 39.684C368.817 39.9267 369.242 40.048 369.764 40.048C370.25 40.048 370.632 39.9407 370.912 39.726C371.192 39.5113 371.332 39.2407 371.332 38.914C371.332 38.578 371.183 38.3307 370.884 38.172C370.586 38.004 370.124 37.8407 369.498 37.682C368.929 37.5327 368.462 37.3833 368.098 37.234C367.744 37.0753 367.436 36.8467 367.174 36.548C366.922 36.24 366.796 35.8387 366.796 35.344C366.796 34.952 366.913 34.5927 367.146 34.266C367.38 33.9393 367.711 33.6827 368.14 33.496C368.57 33.3 369.06 33.202 369.61 33.202C370.46 33.202 371.146 33.4167 371.668 33.846C372.191 34.2753 372.471 34.8633 372.508 35.61H371.234C371.206 35.2087 371.043 34.8867 370.744 34.644C370.455 34.4013 370.063 34.28 369.568 34.28C369.111 34.28 368.747 34.378 368.476 34.574C368.206 34.77 368.07 35.0267 368.07 35.344C368.07 35.596 368.15 35.806 368.308 35.974C368.476 36.1327 368.682 36.2633 368.924 36.366C369.176 36.4593 369.522 36.5667 369.96 36.688C370.511 36.8373 370.959 36.9867 371.304 37.136C371.65 37.276 371.944 37.4907 372.186 37.78C372.438 38.0693 372.569 38.4473 372.578 38.914C372.578 39.334 372.462 39.712 372.228 40.048C371.995 40.384 371.664 40.65 371.234 40.846C370.814 41.0327 370.329 41.126 369.778 41.126ZM381.181 33.328V41H379.907V39.866C379.664 40.258 379.323 40.566 378.885 40.79C378.455 41.0047 377.979 41.112 377.457 41.112C376.859 41.112 376.323 40.9907 375.847 40.748C375.371 40.496 374.993 40.1227 374.713 39.628C374.442 39.1333 374.307 38.5313 374.307 37.822V33.328H375.567V37.654C375.567 38.41 375.758 38.9933 376.141 39.404C376.523 39.8053 377.046 40.006 377.709 40.006C378.39 40.006 378.927 39.796 379.319 39.376C379.711 38.956 379.907 38.3447 379.907 37.542V33.328H381.181ZM392.558 33.188C393.155 33.188 393.687 33.314 394.154 33.566C394.621 33.8087 394.989 34.1773 395.26 34.672C395.531 35.1667 395.666 35.7687 395.666 36.478V41H394.406V36.66C394.406 35.8947 394.215 35.3113 393.832 34.91C393.459 34.4993 392.95 34.294 392.306 34.294C391.643 34.294 391.116 34.5087 390.724 34.938C390.332 35.358 390.136 35.9693 390.136 36.772V41H388.876V36.66C388.876 35.8947 388.685 35.3113 388.302 34.91C387.929 34.4993 387.42 34.294 386.776 34.294C386.113 34.294 385.586 34.5087 385.194 34.938C384.802 35.358 384.606 35.9693 384.606 36.772V41H383.332V33.328H384.606V34.434C384.858 34.0327 385.194 33.7247 385.614 33.51C386.043 33.2953 386.515 33.188 387.028 33.188C387.672 33.188 388.241 33.3327 388.736 33.622C389.231 33.9113 389.599 34.336 389.842 34.896C390.057 34.3547 390.411 33.9347 390.906 33.636C391.401 33.3373 391.951 33.188 392.558 33.188ZM404.756 36.87C404.756 37.1127 404.742 37.3693 404.714 37.64H398.582C398.628 38.396 398.885 38.9887 399.352 39.418C399.828 39.838 400.402 40.048 401.074 40.048C401.624 40.048 402.082 39.922 402.446 39.67C402.819 39.4087 403.08 39.0633 403.23 38.634H404.602C404.396 39.3713 403.986 39.9733 403.37 40.44C402.754 40.8973 401.988 41.126 401.074 41.126C400.346 41.126 399.692 40.9627 399.114 40.636C398.544 40.3093 398.096 39.8473 397.77 39.25C397.443 38.6433 397.28 37.9433 397.28 37.15C397.28 36.3567 397.438 35.6613 397.756 35.064C398.073 34.4667 398.516 34.0093 399.086 33.692C399.664 33.3653 400.327 33.202 401.074 33.202C401.802 33.202 402.446 33.3607 403.006 33.678C403.566 33.9953 403.995 34.434 404.294 34.994C404.602 35.5447 404.756 36.17 404.756 36.87ZM403.44 36.604C403.44 36.1187 403.332 35.7033 403.118 35.358C402.903 35.0033 402.609 34.7373 402.236 34.56C401.872 34.3733 401.466 34.28 401.018 34.28C400.374 34.28 399.823 34.4853 399.366 34.896C398.918 35.3067 398.661 35.876 398.596 36.604H403.44ZM405.961 37.136C405.961 36.352 406.12 35.666 406.437 35.078C406.755 34.4807 407.189 34.0187 407.739 33.692C408.299 33.3653 408.925 33.202 409.615 33.202C410.213 33.202 410.768 33.342 411.281 33.622C411.795 33.8927 412.187 34.252 412.457 34.7V30.64H413.745V41H412.457V39.558C412.205 40.0153 411.832 40.3933 411.337 40.692C410.843 40.9813 410.264 41.126 409.601 41.126C408.92 41.126 408.299 40.958 407.739 40.622C407.189 40.286 406.755 39.8147 406.437 39.208C406.12 38.6013 405.961 37.9107 405.961 37.136ZM412.457 37.15C412.457 36.5713 412.341 36.0673 412.107 35.638C411.874 35.2087 411.557 34.882 411.155 34.658C410.763 34.4247 410.329 34.308 409.853 34.308C409.377 34.308 408.943 34.42 408.551 34.644C408.159 34.868 407.847 35.1947 407.613 35.624C407.38 36.0533 407.263 36.5573 407.263 37.136C407.263 37.724 407.38 38.2373 407.613 38.676C407.847 39.1053 408.159 39.4367 408.551 39.67C408.943 39.894 409.377 40.006 409.853 40.006C410.329 40.006 410.763 39.894 411.155 39.67C411.557 39.4367 411.874 39.1053 412.107 38.676C412.341 38.2373 412.457 37.7287 412.457 37.15Z" fill="#FFFDF8"/>
<path d="M236.992 40.534C237.4 40.21 237.586 40.06 237.55 40.084C238.726 39.112 239.65 38.314 240.322 37.69C241.006 37.066 241.582 36.412 242.05 35.728C242.518 35.044 242.752 34.378 242.752 33.73C242.752 33.238 242.638 32.854 242.41 32.578C242.182 32.302 241.84 32.164 241.384 32.164C240.928 32.164 240.568 32.338 240.304 32.686C240.052 33.022 239.926 33.502 239.926 34.126H236.956C236.98 33.106 237.196 32.254 237.604 31.57C238.024 30.886 238.57 30.382 239.242 30.058C239.926 29.734 240.682 29.572 241.51 29.572C242.938 29.572 244.012 29.938 244.732 30.67C245.464 31.402 245.83 32.356 245.83 33.532C245.83 34.816 245.392 36.01 244.516 37.114C243.64 38.206 242.524 39.274 241.168 40.318H246.028V42.82H236.992V40.534ZM256.635 32.542H251.019V35.026C251.259 34.762 251.595 34.546 252.027 34.378C252.459 34.21 252.927 34.126 253.431 34.126C254.331 34.126 255.075 34.33 255.663 34.738C256.263 35.146 256.701 35.674 256.977 36.322C257.253 36.97 257.391 37.672 257.391 38.428C257.391 39.832 256.995 40.948 256.203 41.776C255.411 42.592 254.295 43 252.855 43C251.895 43 251.061 42.838 250.353 42.514C249.645 42.178 249.099 41.716 248.715 41.128C248.331 40.54 248.121 39.862 248.085 39.094H251.091C251.163 39.466 251.337 39.778 251.613 40.03C251.889 40.27 252.267 40.39 252.747 40.39C253.311 40.39 253.731 40.21 254.007 39.85C254.283 39.49 254.421 39.01 254.421 38.41C254.421 37.822 254.277 37.372 253.989 37.06C253.701 36.748 253.281 36.592 252.729 36.592C252.321 36.592 251.985 36.694 251.721 36.898C251.457 37.09 251.283 37.348 251.199 37.672H248.229V29.842H256.635V32.542ZM265.534 43L262.474 38.788V43H259.396V29.68H262.474V37.042L265.516 32.956H269.314L265.138 37.996L269.35 43H265.534ZM279.649 38.086H276.517V41.29H273.601V38.086H270.469V35.332H273.601V32.11H276.517V35.332H279.649V38.086Z" fill="#FFFDF8"/>
<path d="M504.837 34.114C504.837 33.162 505.052 32.308 505.481 31.552C505.91 30.7867 506.494 30.1893 507.231 29.76C507.978 29.3307 508.804 29.116 509.709 29.116C510.773 29.116 511.702 29.3727 512.495 29.886C513.288 30.3993 513.867 31.1273 514.231 32.07H512.705C512.434 31.482 512.042 31.0293 511.529 30.712C511.025 30.3947 510.418 30.236 509.709 30.236C509.028 30.236 508.416 30.3947 507.875 30.712C507.334 31.0293 506.909 31.482 506.601 32.07C506.293 32.6487 506.139 33.33 506.139 34.114C506.139 34.8887 506.293 35.57 506.601 36.158C506.909 36.7367 507.334 37.1847 507.875 37.502C508.416 37.8193 509.028 37.978 509.709 37.978C510.418 37.978 511.025 37.824 511.529 37.516C512.042 37.1987 512.434 36.746 512.705 36.158H514.231C513.867 37.0913 513.288 37.8147 512.495 38.328C511.702 38.832 510.773 39.084 509.709 39.084C508.804 39.084 507.978 38.874 507.231 38.454C506.494 38.0247 505.91 37.432 505.481 36.676C505.052 35.92 504.837 35.066 504.837 34.114ZM522.932 31.328V39H521.658V37.866C521.415 38.258 521.074 38.566 520.636 38.79C520.206 39.0047 519.73 39.112 519.208 39.112C518.61 39.112 518.074 38.9907 517.598 38.748C517.122 38.496 516.744 38.1227 516.464 37.628C516.193 37.1333 516.058 36.5313 516.058 35.822V31.328H517.318V35.654C517.318 36.41 517.509 36.9933 517.892 37.404C518.274 37.8053 518.797 38.006 519.46 38.006C520.141 38.006 520.678 37.796 521.07 37.376C521.462 36.956 521.658 36.3447 521.658 35.542V31.328H522.932ZM527.799 39.126C527.211 39.126 526.683 39.028 526.217 38.832C525.75 38.6267 525.381 38.3467 525.111 37.992C524.84 37.628 524.691 37.2127 524.663 36.746H525.979C526.016 37.1287 526.193 37.4413 526.511 37.684C526.837 37.9267 527.262 38.048 527.785 38.048C528.27 38.048 528.653 37.9407 528.933 37.726C529.213 37.5113 529.353 37.2407 529.353 36.914C529.353 36.578 529.203 36.3307 528.905 36.172C528.606 36.004 528.144 35.8407 527.519 35.682C526.949 35.5327 526.483 35.3833 526.119 35.234C525.764 35.0753 525.456 34.8467 525.195 34.548C524.943 34.24 524.817 33.8387 524.817 33.344C524.817 32.952 524.933 32.5927 525.167 32.266C525.4 31.9393 525.731 31.6827 526.161 31.496C526.59 31.3 527.08 31.202 527.631 31.202C528.48 31.202 529.166 31.4167 529.689 31.846C530.211 32.2753 530.491 32.8633 530.529 33.61H529.255C529.227 33.2087 529.063 32.8867 528.765 32.644C528.475 32.4013 528.083 32.28 527.589 32.28C527.131 32.28 526.767 32.378 526.497 32.574C526.226 32.77 526.091 33.0267 526.091 33.344C526.091 33.596 526.17 33.806 526.329 33.974C526.497 34.1327 526.702 34.2633 526.945 34.366C527.197 34.4593 527.542 34.5667 527.981 34.688C528.531 34.8373 528.979 34.9867 529.325 35.136C529.67 35.276 529.964 35.4907 530.207 35.78C530.459 36.0693 530.589 36.4473 530.599 36.914C530.599 37.334 530.482 37.712 530.249 38.048C530.015 38.384 529.684 38.65 529.255 38.846C528.835 39.0327 528.349 39.126 527.799 39.126ZM533.951 32.378V36.9C533.951 37.2733 534.03 37.5393 534.189 37.698C534.348 37.8473 534.623 37.922 535.015 37.922H535.953V39H534.805C534.096 39 533.564 38.8367 533.209 38.51C532.854 38.1833 532.677 37.6467 532.677 36.9V32.378H531.683V31.328H532.677V29.396H533.951V31.328H535.953V32.378H533.951ZM540.843 39.126C540.124 39.126 539.471 38.9627 538.883 38.636C538.304 38.3093 537.847 37.8473 537.511 37.25C537.184 36.6433 537.021 35.9433 537.021 35.15C537.021 34.366 537.189 33.6753 537.525 33.078C537.87 32.4713 538.337 32.0093 538.925 31.692C539.513 31.3653 540.171 31.202 540.899 31.202C541.627 31.202 542.285 31.3653 542.873 31.692C543.461 32.0093 543.923 32.4667 544.259 33.064C544.604 33.6613 544.777 34.3567 544.777 35.15C544.777 35.9433 544.599 36.6433 544.245 37.25C543.899 37.8473 543.428 38.3093 542.831 38.636C542.233 38.9627 541.571 39.126 540.843 39.126ZM540.843 38.006C541.3 38.006 541.729 37.8987 542.131 37.684C542.532 37.4693 542.854 37.1473 543.097 36.718C543.349 36.2887 543.475 35.766 543.475 35.15C543.475 34.534 543.353 34.0113 543.111 33.582C542.868 33.1527 542.551 32.8353 542.159 32.63C541.767 32.4153 541.342 32.308 540.885 32.308C540.418 32.308 539.989 32.4153 539.597 32.63C539.214 32.8353 538.906 33.1527 538.673 33.582C538.439 34.0113 538.323 34.534 538.323 35.15C538.323 35.7753 538.435 36.3027 538.659 36.732C538.892 37.1613 539.2 37.4833 539.583 37.698C539.965 37.9033 540.385 38.006 540.843 38.006ZM555.678 31.188C556.275 31.188 556.807 31.314 557.274 31.566C557.74 31.8087 558.109 32.1773 558.38 32.672C558.65 33.1667 558.786 33.7687 558.786 34.478V39H557.526V34.66C557.526 33.8947 557.334 33.3113 556.952 32.91C556.578 32.4993 556.07 32.294 555.426 32.294C554.763 32.294 554.236 32.5087 553.844 32.938C553.452 33.358 553.256 33.9693 553.256 34.772V39H551.996V34.66C551.996 33.8947 551.804 33.3113 551.422 32.91C551.048 32.4993 550.54 32.294 549.896 32.294C549.233 32.294 548.706 32.5087 548.314 32.938C547.922 33.358 547.726 33.9693 547.726 34.772V39H546.452V31.328H547.726V32.434C547.978 32.0327 548.314 31.7247 548.734 31.51C549.163 31.2953 549.634 31.188 550.148 31.188C550.792 31.188 551.361 31.3327 551.856 31.622C552.35 31.9113 552.719 32.336 552.962 32.896C553.176 32.3547 553.531 31.9347 554.026 31.636C554.52 31.3373 555.071 31.188 555.678 31.188ZM567.876 34.87C567.876 35.1127 567.862 35.3693 567.834 35.64H561.702C561.748 36.396 562.005 36.9887 562.472 37.418C562.948 37.838 563.522 38.048 564.194 38.048C564.744 38.048 565.202 37.922 565.566 37.67C565.939 37.4087 566.2 37.0633 566.35 36.634H567.722C567.516 37.3713 567.106 37.9733 566.49 38.44C565.874 38.8973 565.108 39.126 564.194 39.126C563.466 39.126 562.812 38.9627 562.234 38.636C561.664 38.3093 561.216 37.8473 560.89 37.25C560.563 36.6433 560.4 35.9433 560.4 35.15C560.4 34.3567 560.558 33.6613 560.876 33.064C561.193 32.4667 561.636 32.0093 562.206 31.692C562.784 31.3653 563.447 31.202 564.194 31.202C564.922 31.202 565.566 31.3607 566.126 31.678C566.686 31.9953 567.115 32.434 567.414 32.994C567.722 33.5447 567.876 34.17 567.876 34.87ZM566.56 34.604C566.56 34.1187 566.452 33.7033 566.238 33.358C566.023 33.0033 565.729 32.7373 565.356 32.56C564.992 32.3733 564.586 32.28 564.138 32.28C563.494 32.28 562.943 32.4853 562.486 32.896C562.038 33.3067 561.781 33.876 561.716 34.604H566.56ZM570.831 32.574C571.055 32.1353 571.373 31.7947 571.783 31.552C572.203 31.3093 572.712 31.188 573.309 31.188V32.504H572.973C571.545 32.504 570.831 33.2787 570.831 34.828V39H569.557V31.328H570.831V32.574ZM577.496 39.126C576.908 39.126 576.381 39.028 575.914 38.832C575.447 38.6267 575.079 38.3467 574.808 37.992C574.537 37.628 574.388 37.2127 574.36 36.746H575.676C575.713 37.1287 575.891 37.4413 576.208 37.684C576.535 37.9267 576.959 38.048 577.482 38.048C577.967 38.048 578.35 37.9407 578.63 37.726C578.91 37.5113 579.05 37.2407 579.05 36.914C579.05 36.578 578.901 36.3307 578.602 36.172C578.303 36.004 577.841 35.8407 577.216 35.682C576.647 35.5327 576.18 35.3833 575.816 35.234C575.461 35.0753 575.153 34.8467 574.892 34.548C574.64 34.24 574.514 33.8387 574.514 33.344C574.514 32.952 574.631 32.5927 574.864 32.266C575.097 31.9393 575.429 31.6827 575.858 31.496C576.287 31.3 576.777 31.202 577.328 31.202C578.177 31.202 578.863 31.4167 579.386 31.846C579.909 32.2753 580.189 32.8633 580.226 33.61H578.952C578.924 33.2087 578.761 32.8867 578.462 32.644C578.173 32.4013 577.781 32.28 577.286 32.28C576.829 32.28 576.465 32.378 576.194 32.574C575.923 32.77 575.788 33.0267 575.788 33.344C575.788 33.596 575.867 33.806 576.026 33.974C576.194 34.1327 576.399 34.2633 576.642 34.366C576.894 34.4593 577.239 34.5667 577.678 34.688C578.229 34.8373 578.677 34.9867 579.022 35.136C579.367 35.276 579.661 35.4907 579.904 35.78C580.156 36.0693 580.287 36.4473 580.296 36.914C580.296 37.334 580.179 37.712 579.946 38.048C579.713 38.384 579.381 38.65 578.952 38.846C578.532 39.0327 578.047 39.126 577.496 39.126Z" fill="#FFFDF8"/>
<path d="M450.114 31.568C450.162 30.284 450.582 29.294 451.374 28.598C452.166 27.902 453.24 27.554 454.596 27.554C455.496 27.554 456.264 27.71 456.9 28.022C457.548 28.334 458.034 28.76 458.358 29.3C458.694 29.84 458.862 30.446 458.862 31.118C458.862 31.91 458.664 32.558 458.268 33.062C457.872 33.554 457.41 33.89 456.882 34.07V34.142C457.566 34.37 458.106 34.748 458.502 35.276C458.898 35.804 459.096 36.482 459.096 37.31C459.096 38.054 458.922 38.714 458.574 39.29C458.238 39.854 457.74 40.298 457.08 40.622C456.432 40.946 455.658 41.108 454.758 41.108C453.318 41.108 452.166 40.754 451.302 40.046C450.45 39.338 450 38.27 449.952 36.842H452.94C452.952 37.37 453.102 37.79 453.39 38.102C453.678 38.402 454.098 38.552 454.65 38.552C455.118 38.552 455.478 38.42 455.73 38.156C455.994 37.88 456.126 37.52 456.126 37.076C456.126 36.5 455.94 36.086 455.568 35.834C455.208 35.57 454.626 35.438 453.822 35.438H453.246V32.936H453.822C454.434 32.936 454.926 32.834 455.298 32.63C455.682 32.414 455.874 32.036 455.874 31.496C455.874 31.064 455.754 30.728 455.514 30.488C455.274 30.248 454.944 30.128 454.524 30.128C454.068 30.128 453.726 30.266 453.498 30.542C453.282 30.818 453.156 31.16 453.12 31.568H450.114ZM470.156 30.542H464.54V33.026C464.78 32.762 465.116 32.546 465.548 32.378C465.98 32.21 466.448 32.126 466.952 32.126C467.852 32.126 468.596 32.33 469.184 32.738C469.784 33.146 470.222 33.674 470.498 34.322C470.774 34.97 470.912 35.672 470.912 36.428C470.912 37.832 470.516 38.948 469.724 39.776C468.932 40.592 467.816 41 466.376 41C465.416 41 464.582 40.838 463.874 40.514C463.166 40.178 462.62 39.716 462.236 39.128C461.852 38.54 461.642 37.862 461.606 37.094H464.612C464.684 37.466 464.858 37.778 465.134 38.03C465.41 38.27 465.788 38.39 466.268 38.39C466.832 38.39 467.252 38.21 467.528 37.85C467.804 37.49 467.942 37.01 467.942 36.41C467.942 35.822 467.798 35.372 467.51 35.06C467.222 34.748 466.802 34.592 466.25 34.592C465.842 34.592 465.506 34.694 465.242 34.898C464.978 35.09 464.804 35.348 464.72 35.672H461.75V27.842H470.156V30.542ZM479.055 41L475.995 36.788V41H472.917V27.68H475.995V35.042L479.037 30.956H482.835L478.659 35.996L482.871 41H479.055ZM493.17 36.086H490.038V39.29H487.122V36.086H483.99V33.332H487.122V30.11H490.038V33.332H493.17V36.086Z" fill="#FFFDF8"/>
</svg>
