<svg width="71" height="71" viewBox="0 0 71 71" fill="none" xmlns="http://www.w3.org/2000/svg">
<g clip-path="url(#clip0_35_80)">
<path d="M44.6621 21.7597V24.05C44.6621 25.3092 43.6316 26.3403 42.3719 26.3403H5.72776C4.468 26.3403 3.4375 25.3092 3.4375 24.05V21.7597C3.4375 20.5 4.468 19.4695 5.72776 19.4695H42.3719C43.6316 19.4695 44.6621 20.5 44.6621 21.7597Z" fill="#CCD1D9"/>
<path d="M46.5629 43.1162C43.964 42.0969 40.8602 42.1428 37.7916 43.1733V30.9207H10.3085V51.533H27.5771C26.6836 53.0215 26.0311 54.5675 25.6419 56.1135H4.15902C2.26966 53.4453 1.14746 50.1816 1.14746 46.6662C1.14746 45.3377 1.30794 44.0092 1.63951 42.7153L5.72798 26.3402H42.3721L46.46 42.7153C46.4947 42.8411 46.5288 42.9787 46.5629 43.1045V43.1162Z" fill="#AAB2BD"/>
<path d="M4.15869 56.1135H25.6416C25.3436 57.2698 25.1948 58.4267 25.1948 59.5489L25.6187 62.9955L17.4652 62.9843C12.9647 62.9843 8.87676 61.152 5.92223 58.2086C5.28089 57.5679 4.68541 56.8577 4.15869 56.1135Z" fill="#CCD1D9"/>
<path d="M37.7917 30.9207V43.1733C35.2492 44.0209 32.7303 45.5552 30.5541 47.7309C29.3637 48.9218 28.3673 50.1928 27.5772 51.533H10.3086V30.9207H37.7917Z" fill="#E6E9ED"/>
<path d="M13.6749 12.4382C15.278 14.7743 15.3238 17.6713 13.629 19.3548L4.69727 10.4225C5.83065 9.28911 7.5025 8.93405 9.18608 9.31204C10.4341 9.58658 11.6938 10.2626 12.7361 11.316C13.0906 11.6711 13.3998 12.0491 13.6749 12.4382Z" fill="#CF9E76"/>
<path d="M43.4025 10.4225C45.3835 12.3924 44.9826 15.9994 42.5095 18.4613C42.1198 18.8622 41.6848 19.1832 41.2498 19.4695H34.6077C34.5618 19.4236 34.5048 19.4007 34.4707 19.3548L43.4025 10.4225Z" fill="#CF9E76"/>
<path d="M4.69711 10.4225L13.6289 19.3548C13.5948 19.4007 13.5372 19.4236 13.4913 19.4695H6.84982C6.4148 19.1832 5.97923 18.8622 5.59007 18.4613C3.11641 15.9994 2.71606 12.3924 4.69711 10.4225Z" fill="#CF9E76"/>
<path d="M24.0495 14.8889C27.439 14.8889 27.4849 12.6557 30.7827 12.5986C30.8744 12.9649 30.9202 13.354 30.9202 13.7438C30.9202 16.9041 27.8399 19.4694 24.0495 19.4694C20.259 19.4694 17.1787 16.9041 17.1787 13.7438C17.1787 13.354 17.2246 12.9649 17.3163 12.5986C20.6141 12.6557 20.6599 14.8889 24.0495 14.8889Z" fill="#CF9E76"/>
<path d="M30.1416 11.0868L38.8218 2.40662C40.5165 4.0902 40.4707 6.97595 38.8676 9.31206V9.32324C37.6308 9.59834 36.394 10.2738 35.3635 11.316C35.0084 11.6711 34.688 12.0491 34.4246 12.4494H34.4129C33.0162 12.7704 31.6306 12.587 30.5425 11.8769C30.4396 11.6023 30.2903 11.339 30.1416 11.0868Z" fill="#CF9E76"/>
<path d="M9.2776 2.40662L17.9572 11.0868C17.8085 11.339 17.6597 11.6023 17.5569 11.8769C16.4688 12.587 15.0715 12.7704 13.6747 12.4382C13.3996 12.0491 13.0904 11.6711 12.7359 11.316C11.6937 10.2626 10.4339 9.5866 9.1859 9.31205L9.19709 9.27739C7.62813 6.94128 7.59402 4.07846 9.2776 2.40662Z" fill="#CF9E76"/>
<path d="M38.8215 2.40661L30.1413 11.0868C29.798 10.5489 29.3742 10.0792 28.8587 9.65536C28.2291 7.68605 28.9045 5.16655 30.7827 3.30012C33.2446 0.826464 36.8516 0.425557 38.8215 2.40661Z" fill="#CF9E76"/>
<path d="M17.9572 11.0868C18.3011 10.5371 18.7478 10.0563 19.2745 9.63244C20.4996 8.6366 22.1832 8.01819 24.0496 8.01819C25.9278 8.01819 27.6226 8.64779 28.8588 9.65536C29.3744 10.0792 29.7982 10.5489 30.1415 11.0868C30.2902 11.3389 30.4395 11.6023 30.5424 11.8768C30.6453 12.1173 30.7258 12.3583 30.7828 12.5987C27.485 12.6557 27.4392 14.889 24.0496 14.889C20.6601 14.889 20.6142 12.6557 17.3164 12.5987C17.3734 12.3583 17.4534 12.1173 17.5568 11.8768C17.6597 11.6023 17.8085 11.3389 17.9572 11.0868Z" fill="#CF9E76"/>
<path d="M17.3167 3.30012C19.1713 5.14362 19.8585 7.6402 19.2519 9.59833L19.2748 9.63244C18.7481 10.0563 18.3013 10.5371 17.9574 11.0868L9.27783 2.40661C11.2471 0.425557 14.8542 0.826464 17.3167 3.30012Z" fill="#CF9E76"/>
<path d="M43.4021 10.4225L34.4703 19.3549C32.7755 17.6713 32.8208 14.7855 34.4127 12.4494H34.4244C34.6878 12.0491 35.0082 11.6711 35.3632 11.3161C36.3937 10.2738 37.6306 9.59836 38.8674 9.32326C40.5622 8.92291 42.2569 9.27741 43.4021 10.4225Z" fill="#CF9E76"/>
<path d="M24.0498 46.9526V35.5013C26.5805 35.5013 28.6303 38.0661 28.6303 41.2269C28.6303 44.3872 26.5805 46.9526 24.0498 46.9526Z" fill="#CF9E76"/>
<path d="M19.4692 41.2269C19.4692 38.0661 21.5191 35.5013 24.0497 35.5013V46.9526C21.5191 46.9526 19.4692 44.3872 19.4692 41.2269Z" fill="#CF9E76"/>
<path d="M49.0709 46.3453C46.8835 46.7345 44.719 46.9526 42.1542 49.5174C37.3674 54.3042 40.7458 57.682 35.9589 62.4688C32.6952 65.7325 30.0957 65.2058 27.2558 66.0529L27.2217 66.0759C26.4887 65.16 25.962 64.1407 25.6187 62.9955L25.1948 59.549C25.1948 58.4268 25.3436 57.2699 25.6416 56.1136C26.0307 54.5675 26.6833 53.0215 27.5768 51.5331C28.3669 50.1928 29.3632 48.9219 30.5537 47.7309C32.7299 45.5553 35.2488 44.021 37.7912 43.1733C40.8598 42.1428 43.9636 42.0969 46.5625 43.1163C47.7653 43.5742 48.8528 44.2726 49.7804 45.189C49.5288 45.5553 49.2884 45.9444 49.0709 46.3453Z" fill="#CF9E76"/>
<path d="M27.2558 66.0529C30.0957 65.2058 32.6951 65.7326 35.9589 62.4688C40.7457 57.682 37.3674 54.3042 42.1542 49.5174C44.719 46.9526 46.8834 46.7345 49.0708 46.3453C47.7306 48.7731 46.9522 51.7506 46.9522 54.9685C46.9522 57.8883 47.5936 60.6136 48.727 62.9038V62.9156C48.2802 63.4535 47.8223 63.9802 47.3185 64.4957C41.2954 70.5076 32.6722 71.6298 28.0459 67.0035C27.7484 66.706 27.4733 66.3968 27.2217 66.0759L27.2558 66.0529Z" fill="#CF9E76"/>
<path d="M60.6937 61.4495C60.6937 65.8701 58.5751 67.2785 57.2237 69.7746C53.6395 69.2937 50.548 66.6831 48.7269 62.9155V62.9038C47.5935 60.6135 46.9521 57.8883 46.9521 54.9684C46.9521 51.7505 47.7305 48.7731 49.0708 46.3453C49.2883 45.9444 49.5287 45.5552 49.7803 45.189C51.876 42.0628 54.9563 40.0817 58.4035 40.0817C58.8044 40.0817 59.1935 40.1047 59.5827 40.1617C58.2318 42.6465 56.1132 44.0668 56.1132 48.4751C56.1132 54.9684 60.6937 54.9684 60.6937 61.4495Z" fill="#D3A06C"/>
<path d="M59.5828 40.1617C65.3543 40.9288 69.8548 47.2617 69.8548 54.9684C69.8548 63.1901 64.7247 69.8551 58.4035 69.8551C58.0026 69.8551 57.6135 69.8321 57.2237 69.7745C58.5752 67.2785 60.6938 65.87 60.6938 61.4494C60.6938 54.9684 56.1133 54.9684 56.1133 48.475C56.1133 44.0667 58.2319 42.6465 59.5828 40.1617Z" fill="#D3A06C"/>
<path d="M58.404 38.9365C54.982 38.9365 51.8788 40.6872 49.6059 43.5159C48.9645 43.0256 48.2673 42.6258 47.5354 42.2959L43.7622 27.185C44.9644 26.6493 45.8076 25.4477 45.8076 24.0499V21.7596C45.8076 20.4026 45.0103 19.2379 43.8651 18.6804C46.2734 15.7991 46.4763 11.8678 44.2168 9.60826C43.2892 8.68064 42.0792 8.17126 40.7758 8.05663C41.6291 5.68195 41.2545 3.21164 39.6363 1.59236C37.2191 -0.824822 32.8813 -0.426152 29.9693 2.48699C28.5205 3.93518 27.6779 5.7675 27.5252 7.56179C26.4729 7.12454 25.297 6.87292 24.0501 6.87292C22.8033 6.87292 21.6257 7.12454 20.5723 7.56179C20.4202 5.76526 19.5748 3.92959 18.1299 2.48587C16.7522 1.10814 15.0149 0.241467 13.238 0.0429703C11.3609 -0.165032 9.66838 0.384608 8.4623 1.59124C6.84805 3.20605 6.47343 5.67859 7.32556 8.0544C6.0222 8.17126 4.81053 8.67952 3.88291 9.60826C1.62396 11.8678 1.82637 15.7991 4.23461 18.6804C3.08948 19.2379 2.2927 20.4026 2.2927 21.7596V24.0499C2.2927 25.4477 3.13533 26.6493 4.33637 27.1839L0.523565 42.4357C0.177454 43.8212 0.00244141 45.2448 0.00244141 46.6706C0.00244141 56.2974 7.83383 64.1294 17.4601 64.1294L24.8 64.1361C25.3211 65.492 26.124 66.702 27.2356 67.8141C29.3715 69.9489 32.2696 70.9839 35.3935 70.9839C39.6822 70.9839 44.3918 69.0325 48.1253 65.3008C48.2566 65.1688 48.3897 65.0201 48.5228 64.8792C50.831 68.5997 54.3983 71.0001 58.404 71.0001C65.3492 71.0001 71.0004 63.8084 71.0004 54.9683C71.0004 46.1277 65.3492 38.9365 58.404 38.9365ZM5.72809 25.195C5.09681 25.195 4.58296 24.6806 4.58296 24.0499V21.7596C4.58296 21.1283 5.09681 20.6145 5.72809 20.6145H42.3722C43.0029 20.6145 43.5173 21.1283 43.5173 21.7596V24.0499C43.5173 24.6806 43.0029 25.195 42.3722 25.195H5.72809ZM6.3957 17.6566C5.38421 16.6451 4.75014 15.3926 4.61035 14.1306C4.53263 13.425 4.63552 12.7803 4.87036 12.2161L10.9796 18.3242H7.21653C6.90285 18.1028 6.62663 17.8853 6.3957 17.6566ZM9.44137 4.19071L16.4223 11.1716C15.8028 11.4305 15.0803 11.4993 14.3121 11.3824C14.0784 11.0788 13.8295 10.7836 13.5494 10.5029C12.4943 9.44835 11.2508 8.72649 9.98094 8.34627C9.12769 6.91877 8.94261 5.37609 9.44137 4.19071ZM38.6528 4.19518C39.1404 5.3828 38.9553 6.93779 38.1166 8.34515C36.8467 8.72649 35.6054 9.44723 34.5498 10.5018C34.2691 10.7819 34.0197 11.0788 33.7871 11.3824C33.0188 11.4993 32.2959 11.4294 31.6763 11.1716L38.6528 4.19518ZM43.4899 14.1295C43.349 15.3926 42.7155 16.644 41.7046 17.6555C41.4742 17.8853 41.1974 18.1028 40.8832 18.3242H37.1207L43.2288 12.2161C43.4648 12.7792 43.5677 13.4239 43.4899 14.1295ZM32.066 13.7437C32.066 13.7124 32.0616 13.6816 32.0605 13.6509C32.2092 13.676 32.3602 13.6917 32.5128 13.7057C31.9548 15.2825 31.9341 16.9213 32.4725 18.3242H30.0067C31.2827 17.107 32.066 15.5044 32.066 13.7437ZM34.6437 17.5627C33.9761 15.9719 34.5257 13.7655 36.1702 12.1211C37.1811 11.1096 38.4342 10.4755 39.6961 10.3357C40.4001 10.2563 41.0448 10.3609 41.6107 10.5957L34.6437 17.5627ZM24.0501 18.3242C20.9502 18.3242 18.4319 16.3392 18.3418 13.8773C18.9899 14.0423 19.4501 14.3425 19.979 14.6965C20.8736 15.2931 21.9852 16.034 24.0501 16.034C26.1145 16.034 27.2267 15.2931 28.1207 14.6965C28.6514 14.3425 29.1115 14.0423 29.7585 13.8773C29.6679 16.3392 27.15 18.3242 24.0501 18.3242ZM15.5875 13.7068C15.7396 13.6928 15.8911 13.6772 16.0398 13.652C16.0387 13.6827 16.0342 13.7124 16.0342 13.7437C16.0342 15.5044 16.8176 17.107 18.0919 18.3242H15.6266C16.1656 16.9224 16.1438 15.2825 15.5875 13.7068ZM11.9312 12.1211C13.5964 13.7856 14.1399 16.0278 13.4773 17.5817L6.49076 10.5957C7.05494 10.3598 7.69963 10.2563 8.40527 10.3357C9.66726 10.4766 10.9197 11.1107 11.9312 12.1211ZM31.5885 4.10516C32.5995 3.09366 33.8525 2.45959 35.1145 2.31981C35.8185 2.24041 36.4632 2.34497 37.029 2.57981L30.2337 9.37622C30.1275 9.26495 30.0106 9.16318 29.8971 9.0575C29.5124 7.48407 30.1638 5.53042 31.5885 4.10516ZM29.1322 11.6777C28.1358 11.9421 27.4419 12.3956 26.8509 12.7909C26.0519 13.3232 25.4206 13.7437 24.0501 13.7437C22.6791 13.7437 22.0484 13.3232 21.2499 12.7909C20.6595 12.3967 19.9645 11.9421 18.9692 11.6777C19.9164 10.1926 21.8264 9.16318 24.0501 9.16318C26.2739 9.16318 28.1839 10.1926 29.1322 11.6777ZM12.9847 2.31981C14.2478 2.46071 15.4991 3.09366 16.5106 4.10516C17.9303 5.52483 18.5867 7.48295 18.2043 9.05639C18.0897 9.16206 17.9728 9.26495 17.8654 9.37622L11.0702 2.58093C11.6355 2.34497 12.2801 2.24153 12.9847 2.31981ZM2.74617 42.9926L6.62216 27.4852H41.4776L44.9795 41.4913C43.0706 41.1233 41.0096 41.1966 38.9368 41.6847V29.7755H9.16347V52.6781H25.6828C25.3289 53.4301 25.0359 54.195 24.7944 54.9683H4.77866C3.21193 52.5819 2.2927 49.7325 2.2927 46.6706C2.2927 45.4327 2.44479 44.1947 2.74617 42.9926ZM26.9666 50.3878H11.4537V32.0658H36.6466V42.3937C34.2037 43.337 31.8234 44.8512 29.7495 46.9245C28.6754 47.9986 27.7556 49.1678 26.9666 50.3878ZM26.4824 61.8469L17.4612 61.8391C13.215 61.8391 9.37651 60.08 6.61992 57.2586H24.2598C24.1379 58.0224 24.0524 58.7862 24.0501 59.5438L26.3404 59.5533C26.3538 55.7388 28.1873 51.7275 31.3688 48.5449C36.5778 43.3381 43.8813 42.0236 48.2063 45.3309C46.1817 45.682 43.9009 46.1506 41.3473 48.7042C38.6964 51.3551 38.2888 53.7153 37.9292 55.7981C37.5843 57.7976 37.2857 59.5248 35.1486 61.6624C33.0104 63.8006 31.2838 64.0969 29.2843 64.443C28.7704 64.5319 28.2376 64.6365 27.6963 64.7612C27.2691 64.1087 26.9392 63.4192 26.7217 62.6728L26.4824 61.8469ZM46.5048 63.6815C41.2064 68.9788 33.7742 70.2408 29.4733 66.7355C29.541 66.7238 29.6053 66.7104 29.674 66.6986C31.7557 66.3391 34.1159 65.9326 36.7668 63.2806C39.4177 60.6286 39.8253 58.2695 40.1837 56.1878C40.5287 54.1883 40.8273 52.4617 42.9643 50.3235C44.4724 48.8155 45.7768 48.229 47.1166 47.8912C46.2873 50.0294 45.8076 52.4259 45.8076 54.9683C45.8076 57.778 46.3824 60.4189 47.3844 62.717C47.0819 63.0698 46.7911 63.3963 46.5048 63.6815ZM48.0979 54.9683C48.0979 47.8006 52.2372 41.9045 57.4948 41.2883C57.4853 41.3012 57.4775 41.3134 57.4686 41.3263C56.2966 42.9853 54.9686 44.8657 54.9686 48.4727C54.9686 52.0815 56.2966 53.9624 57.4686 55.6242C58.5846 57.2055 59.5491 58.572 59.5491 61.4538C59.5491 64.3362 58.5846 65.7028 57.4686 67.284C57.1968 67.6699 56.9234 68.0741 56.6567 68.4968C51.8044 67.3847 48.0979 61.7496 48.0979 54.9683ZM59.3098 68.6489C59.3199 68.6338 59.3294 68.6204 59.3395 68.6053C60.5109 66.9452 61.8394 65.0626 61.8394 61.4538C61.8394 57.8457 60.5109 55.9642 59.3395 54.3029C58.2229 52.7211 57.2589 51.3551 57.2589 48.4727C57.2589 45.5931 58.2229 44.2277 59.3395 42.6465C59.6106 42.2629 59.8835 41.8597 60.1502 41.4381C65.0019 42.5503 68.7102 48.1865 68.7102 54.9683C68.7102 62.1377 64.5691 68.0339 59.3098 68.6489Z" fill="black"/>
<path d="M24.0499 34.3561C20.8924 34.3561 18.3242 37.4376 18.3242 41.2269C18.3242 45.0157 20.8924 48.0977 24.0499 48.0977C27.2068 48.0977 29.7755 45.0157 29.7755 41.2269C29.7755 37.4376 27.2068 34.3561 24.0499 34.3561ZM20.6145 41.2269C20.6145 39.2386 21.5751 37.56 22.9047 36.9276V45.5267C21.5751 44.8932 20.6145 43.2147 20.6145 41.2269ZM25.195 45.5256V36.9265C26.5246 37.5589 27.4853 39.2375 27.4853 41.2258C27.4853 43.2136 26.5246 44.8932 25.195 45.5256Z" fill="black"/>
</g>
<defs>
<clipPath id="clip0_35_80">
<rect width="71" height="71" fill="white"/>
</clipPath>
</defs>
</svg>
