<svg width="73" height="83" viewBox="0 0 73 83" fill="none" xmlns="http://www.w3.org/2000/svg">
<path d="M4.35938 77.9062C3.83854 77.9062 3.36458 77.7812 2.9375 77.5312C2.52083 77.2812 2.16146 76.9375 1.85938 76.5C1.56771 76.0625 1.34375 75.5521 1.1875 74.9688C1.04167 74.375 0.979167 73.7448 1 73.0781C1.02083 72.4531 1.09896 71.776 1.23438 71.0469C1.38021 70.3177 1.58333 69.5885 1.84375 68.8594C2.10417 68.1198 2.41667 67.4115 2.78125 66.7344C3.15625 66.0469 3.58333 65.4427 4.0625 64.9219C4.54167 64.401 5.07292 63.9844 5.65625 63.6719C6.23958 63.349 6.88021 63.1875 7.57812 63.1875C8.00521 63.1875 8.36458 63.276 8.65625 63.4531C8.95833 63.6198 9.19792 63.8438 9.375 64.125C9.5625 64.4062 9.69271 64.724 9.76562 65.0781C9.83854 65.4323 9.86979 65.7917 9.85938 66.1562C9.83854 66.5 9.78646 66.8333 9.70312 67.1562C9.63021 67.4792 9.52083 67.7708 9.375 68.0312C9.23958 68.2812 9.06771 68.4844 8.85938 68.6406C8.66146 68.7865 8.43229 68.8594 8.17188 68.8594C8.04688 68.849 7.92708 68.8073 7.8125 68.7344C7.70833 68.6719 7.59896 68.5781 7.48438 68.4531C7.38021 68.3281 7.28125 68.1458 7.1875 67.9062C7.46875 67.7917 7.6875 67.5938 7.84375 67.3125C8.01042 67.0208 8.13542 66.7188 8.21875 66.4062C8.3125 66.0521 8.375 65.6562 8.40625 65.2188C8.42708 64.7917 8.33854 64.4792 8.14062 64.2812C7.94271 64.0833 7.71875 63.9844 7.46875 63.9844C6.97917 63.9844 6.46354 64.2396 5.92188 64.75C5.38021 65.2604 4.875 65.9531 4.40625 66.8281C3.94792 67.6927 3.55729 68.7031 3.23438 69.8594C2.92188 71.0156 2.73958 72.2396 2.6875 73.5312C2.66667 74.1146 2.70312 74.6094 2.79688 75.0156C2.90104 75.4219 3.04167 75.7552 3.21875 76.0156C3.40625 76.276 3.61458 76.4635 3.84375 76.5781C4.07292 76.6927 4.30208 76.75 4.53125 76.75C4.89583 76.75 5.23958 76.6719 5.5625 76.5156C5.88542 76.3594 6.17708 76.1667 6.4375 75.9375C6.70833 75.7083 6.9375 75.4688 7.125 75.2188C7.32292 74.9792 7.47396 74.7656 7.57812 74.5781C7.65104 74.4427 7.72917 74.3594 7.8125 74.3281C7.89583 74.2969 7.96875 74.3073 8.03125 74.3594C8.09375 74.401 8.13542 74.474 8.15625 74.5781C8.17708 74.6719 8.15625 74.7865 8.09375 74.9219C7.91667 75.276 7.69792 75.6302 7.4375 75.9844C7.1875 76.3385 6.90104 76.6562 6.57812 76.9375C6.26562 77.2292 5.92188 77.4635 5.54688 77.6406C5.17188 77.8177 4.77604 77.9062 4.35938 77.9062ZM14.4062 72.5156C14.3021 72.9115 14.1615 73.2812 13.9844 73.625C13.8073 73.9688 13.5938 74.2656 13.3438 74.5156C13.1042 74.7656 12.8281 74.9583 12.5156 75.0938C12.2135 75.2396 11.8802 75.3125 11.5156 75.3125C11.0885 75.3125 10.75 75.2188 10.5 75.0312C10.2604 74.8542 10.0781 74.6302 9.95312 74.3594C9.83854 74.0885 9.77083 73.7917 9.75 73.4688C9.71875 73.1458 9.70312 72.8438 9.70312 72.5625C9.70312 72.3646 9.72917 72.1458 9.78125 71.9062C9.82292 71.6667 9.88542 71.4219 9.96875 71.1719C10.0521 70.9219 10.1562 70.6719 10.2812 70.4219C10.4167 70.1719 10.5729 69.9427 10.75 69.7344C10.8125 69.5573 10.9062 69.401 11.0312 69.2656C11.1667 69.1302 11.3177 69.0208 11.4844 68.9375C11.6615 68.8438 11.849 68.776 12.0469 68.7344C12.2448 68.6823 12.4375 68.6562 12.625 68.6562C12.6562 68.6562 12.6823 68.6615 12.7031 68.6719C12.7344 68.6823 12.7656 68.6927 12.7969 68.7031C12.9323 68.7135 13.099 68.7656 13.2969 68.8594C13.5052 68.9531 13.7031 69.0938 13.8906 69.2812C14.0885 69.4688 14.2552 69.7083 14.3906 70C14.526 70.2812 14.5938 70.625 14.5938 71.0312C14.5938 71.1146 14.5885 71.2188 14.5781 71.3438C14.5677 71.4583 14.5573 71.5573 14.5469 71.6406C14.7865 71.5469 15.0365 71.4323 15.2969 71.2969C15.5573 71.1615 15.8073 71.0208 16.0469 70.875C16.2969 70.7188 16.526 70.5625 16.7344 70.4062C16.9427 70.25 17.1094 70.1094 17.2344 69.9844C17.3385 69.8906 17.4271 69.8385 17.5 69.8281C17.5729 69.8177 17.625 69.8385 17.6562 69.8906C17.6875 69.9427 17.6927 70.0156 17.6719 70.1094C17.651 70.2031 17.5938 70.3073 17.5 70.4219C17.4479 70.4844 17.3125 70.6094 17.0938 70.7969C16.8854 70.9844 16.6354 71.1875 16.3438 71.4062C16.0521 71.625 15.7344 71.8385 15.3906 72.0469C15.0469 72.2552 14.7188 72.4115 14.4062 72.5156ZM11.7656 70.1406C11.7344 70.2344 11.7188 70.3333 11.7188 70.4375C11.7188 70.6042 11.7292 70.7812 11.75 70.9688C11.7708 71.1458 11.8229 71.3073 11.9062 71.4531C11.9896 71.599 12.1198 71.724 12.2969 71.8281C12.4844 71.9219 12.7396 71.9688 13.0625 71.9688C13.1146 71.9688 13.1667 71.9688 13.2188 71.9688C13.2708 71.9583 13.3229 71.9479 13.375 71.9375C13.4062 71.8021 13.4323 71.6823 13.4531 71.5781C13.4844 71.4635 13.5 71.3646 13.5 71.2812C13.5208 71.0833 13.5208 70.8802 13.5 70.6719C13.4792 70.4635 13.4375 70.276 13.375 70.1094C13.3229 69.9323 13.25 69.7917 13.1562 69.6875C13.0729 69.5729 12.9688 69.5156 12.8438 69.5156C12.6458 69.5156 12.4531 69.5729 12.2656 69.6875C12.0885 69.7917 11.9219 69.9427 11.7656 70.1406ZM10.7656 72.8906C10.7656 73.0781 10.776 73.2656 10.7969 73.4531C10.8177 73.6302 10.8594 73.7917 10.9219 73.9375C10.9844 74.0729 11.0677 74.1875 11.1719 74.2812C11.276 74.3646 11.4115 74.4062 11.5781 74.4062C11.7656 74.4062 11.9375 74.3646 12.0938 74.2812C12.25 74.1875 12.3906 74.0729 12.5156 73.9375C12.6406 73.7917 12.75 73.6302 12.8438 73.4531C12.9479 73.2656 13.0365 73.0729 13.1094 72.875C13.0365 72.8854 12.9635 72.8958 12.8906 72.9062C12.8281 72.9062 12.7552 72.9062 12.6719 72.9062C12.276 72.9062 11.9323 72.7917 11.6406 72.5625C11.3594 72.3229 11.1406 72.0208 10.9844 71.6562C10.9219 71.875 10.8698 72.0885 10.8281 72.2969C10.7865 72.5052 10.7656 72.7031 10.7656 72.8906ZM16.3906 73.375C16.276 73.2604 16.1927 73.151 16.1406 73.0469C16.099 72.9323 16.0677 72.8229 16.0469 72.7188C16.026 72.6042 16.026 72.4896 16.0469 72.375C16.0885 72.2292 16.151 72.0938 16.2344 71.9688C16.3073 71.8542 16.4062 71.7396 16.5312 71.625C16.6562 71.5 16.8229 71.3854 17.0312 71.2812C17.1667 70.9479 17.2865 70.599 17.3906 70.2344C17.5052 69.8594 17.6042 69.5208 17.6875 69.2188C17.7812 68.8646 17.8646 68.5104 17.9375 68.1562C18.1979 67.2708 18.3333 66.5521 18.3438 66C18.3542 65.4375 18.3438 65.0677 18.3125 64.8906C18.3021 64.8177 18.2917 64.7448 18.2812 64.6719C18.2604 64.6094 18.2396 64.5417 18.2188 64.4688C18.2083 64.3854 18.1927 64.3073 18.1719 64.2344C18.2865 64.1719 18.3854 64.1198 18.4688 64.0781C18.5625 64.0365 18.6406 64.0052 18.7031 63.9844C18.776 63.9531 18.8438 63.9323 18.9062 63.9219C19.1458 63.8698 19.3698 63.8438 19.5781 63.8438C19.7969 63.8333 19.9167 63.8698 19.9375 63.9531C19.9479 64.0052 19.9583 64.099 19.9688 64.2344C19.9896 64.3698 20 64.5365 20 64.7344C20 64.9323 19.9844 65.1562 19.9531 65.4062C19.9219 65.6458 19.8646 65.901 19.7812 66.1719C19.7083 66.4115 19.6094 66.7448 19.4844 67.1719C19.3698 67.5365 19.2188 68.026 19.0312 68.6406C18.8438 69.2448 18.599 70.0208 18.2969 70.9688C18.6094 70.8646 18.9531 70.7656 19.3281 70.6719C19.7031 70.5781 20.0833 70.5 20.4688 70.4375C20.8646 70.375 21.2552 70.3281 21.6406 70.2969C22.0365 70.2656 22.401 70.2604 22.7344 70.2812C22.7969 70.2812 22.8385 70.3125 22.8594 70.375C22.8906 70.4271 22.8906 70.4844 22.8594 70.5469C22.8385 70.6094 22.7812 70.6719 22.6875 70.7344C22.6042 70.7865 22.4792 70.8177 22.3125 70.8281C22.1042 70.849 21.875 70.875 21.625 70.9062C21.375 70.9271 21.1146 70.9635 20.8438 71.0156C20.5833 71.0573 20.3229 71.1146 20.0625 71.1875C19.8021 71.25 19.5573 71.3281 19.3281 71.4219C19.151 71.4844 18.974 71.5469 18.7969 71.6094C18.651 71.6615 18.4948 71.724 18.3281 71.7969C18.1719 71.8594 18.0417 71.9167 17.9375 71.9688L17.5781 73.1094C18.1823 73.5365 18.6458 73.974 18.9688 74.4219C19.3021 74.8698 19.5417 75.2812 19.6875 75.6562C19.8646 76.0938 19.9635 76.5208 19.9844 76.9375C19.9844 77.3958 19.9167 77.8542 19.7812 78.3125C19.6458 78.7812 19.4635 79.224 19.2344 79.6406C19.0156 80.0677 18.7552 80.4635 18.4531 80.8281C18.1615 81.1927 17.849 81.5052 17.5156 81.7656C17.1927 82.026 16.8594 82.224 16.5156 82.3594C16.1823 82.4948 15.8646 82.5469 15.5625 82.5156C15.3438 82.4948 15.1615 82.4219 15.0156 82.2969C14.8698 82.1823 14.7604 82.0312 14.6875 81.8438C14.6146 81.6667 14.5729 81.4635 14.5625 81.2344C14.5521 81.0156 14.5729 80.7969 14.625 80.5781C14.6667 80.3594 14.7552 79.9531 14.8906 79.3594C15.0052 78.8594 15.1823 78.1302 15.4219 77.1719C15.6615 76.224 15.9844 74.9583 16.3906 73.375ZM17.3125 74.1094C17.1667 74.6302 17.0365 75.1094 16.9219 75.5469C16.8177 75.9844 16.7292 76.3698 16.6562 76.7031C16.5625 77.0885 16.4896 77.4375 16.4375 77.75C16.3438 78.1458 16.2448 78.5365 16.1406 78.9219C16.0469 79.3073 15.974 79.651 15.9219 79.9531C15.8594 80.2656 15.8333 80.5156 15.8438 80.7031C15.8542 80.8906 15.9219 80.9844 16.0469 80.9844C16.349 81.0052 16.6615 80.8854 16.9844 80.625C17.3177 80.375 17.6198 80.0521 17.8906 79.6562C18.1615 79.2708 18.3854 78.849 18.5625 78.3906C18.7396 77.9427 18.8281 77.526 18.8281 77.1406C18.8281 76.7135 18.7604 76.2917 18.625 75.875C18.5312 75.6562 18.4219 75.4427 18.2969 75.2344C18.1823 75.0573 18.0417 74.8698 17.875 74.6719C17.7188 74.4635 17.5312 74.276 17.3125 74.1094ZM21.5938 73.375C21.4792 73.2604 21.3958 73.151 21.3438 73.0469C21.3021 72.9323 21.2708 72.8229 21.25 72.7188C21.2292 72.6042 21.2292 72.4896 21.25 72.375C21.2917 72.2292 21.3542 72.0938 21.4375 71.9688C21.5104 71.8542 21.6094 71.7396 21.7344 71.625C21.8594 71.5 22.026 71.3854 22.2344 71.2812C22.3698 70.9479 22.4896 70.599 22.5938 70.2344C22.7083 69.8594 22.8073 69.5208 22.8906 69.2188C22.9844 68.8646 23.0677 68.5104 23.1406 68.1562C23.401 67.2708 23.5365 66.5521 23.5469 66C23.5573 65.4375 23.5469 65.0677 23.5156 64.8906C23.5052 64.8177 23.4948 64.7448 23.4844 64.6719C23.4635 64.6094 23.4427 64.5417 23.4219 64.4688C23.4115 64.3854 23.3958 64.3073 23.375 64.2344C23.4896 64.1719 23.5885 64.1198 23.6719 64.0781C23.7656 64.0365 23.8438 64.0052 23.9062 63.9844C23.9792 63.9531 24.0469 63.9323 24.1094 63.9219C24.349 63.8698 24.5729 63.8438 24.7812 63.8438C25 63.8333 25.1198 63.8698 25.1406 63.9531C25.151 64.0052 25.1615 64.099 25.1719 64.2344C25.1927 64.3698 25.2031 64.5365 25.2031 64.7344C25.2031 64.9323 25.1875 65.1562 25.1562 65.4062C25.125 65.6458 25.0677 65.901 24.9844 66.1719C24.9115 66.4115 24.8125 66.7448 24.6875 67.1719C24.5729 67.5365 24.4219 68.026 24.2344 68.6406C24.0469 69.2448 23.8021 70.0208 23.5 70.9688C23.8125 70.8646 24.1562 70.7656 24.5312 70.6719C24.9062 70.5781 25.2865 70.5 25.6719 70.4375C26.0677 70.375 26.4583 70.3281 26.8438 70.2969C27.2396 70.2656 27.6042 70.2604 27.9375 70.2812C28 70.2812 28.0417 70.3125 28.0625 70.375C28.0938 70.4271 28.0938 70.4844 28.0625 70.5469C28.0417 70.6094 27.9844 70.6719 27.8906 70.7344C27.8073 70.7865 27.6823 70.8177 27.5156 70.8281C27.3073 70.849 27.0781 70.875 26.8281 70.9062C26.5781 70.9271 26.3177 70.9635 26.0469 71.0156C25.7865 71.0573 25.526 71.1146 25.2656 71.1875C25.0052 71.25 24.7604 71.3281 24.5312 71.4219C24.3542 71.4844 24.1771 71.5469 24 71.6094C23.8542 71.6615 23.6979 71.724 23.5312 71.7969C23.375 71.8594 23.2448 71.9167 23.1406 71.9688L22.7812 73.1094C23.3854 73.5365 23.849 73.974 24.1719 74.4219C24.5052 74.8698 24.7448 75.2812 24.8906 75.6562C25.0677 76.0938 25.1667 76.5208 25.1875 76.9375C25.1875 77.3958 25.1198 77.8542 24.9844 78.3125C24.849 78.7812 24.6667 79.224 24.4375 79.6406C24.2188 80.0677 23.9583 80.4635 23.6562 80.8281C23.3646 81.1927 23.0521 81.5052 22.7188 81.7656C22.3958 82.026 22.0625 82.224 21.7188 82.3594C21.3854 82.4948 21.0677 82.5469 20.7656 82.5156C20.5469 82.4948 20.3646 82.4219 20.2188 82.2969C20.0729 82.1823 19.9635 82.0312 19.8906 81.8438C19.8177 81.6667 19.776 81.4635 19.7656 81.2344C19.7552 81.0156 19.776 80.7969 19.8281 80.5781C19.8698 80.3594 19.9583 79.9531 20.0938 79.3594C20.2083 78.8594 20.3854 78.1302 20.625 77.1719C20.8646 76.224 21.1875 74.9583 21.5938 73.375ZM22.5156 74.1094C22.3698 74.6302 22.2396 75.1094 22.125 75.5469C22.0208 75.9844 21.9323 76.3698 21.8594 76.7031C21.7656 77.0885 21.6927 77.4375 21.6406 77.75C21.5469 78.1458 21.4479 78.5365 21.3438 78.9219C21.25 79.3073 21.1771 79.651 21.125 79.9531C21.0625 80.2656 21.0365 80.5156 21.0469 80.7031C21.0573 80.8906 21.125 80.9844 21.25 80.9844C21.5521 81.0052 21.8646 80.8854 22.1875 80.625C22.5208 80.375 22.8229 80.0521 23.0938 79.6562C23.3646 79.2708 23.5885 78.849 23.7656 78.3906C23.9427 77.9427 24.0312 77.526 24.0312 77.1406C24.0312 76.7135 23.9635 76.2917 23.8281 75.875C23.7344 75.6562 23.625 75.4427 23.5 75.2344C23.3854 75.0573 23.2448 74.8698 23.0781 74.6719C22.9219 74.4635 22.7344 74.276 22.5156 74.1094ZM33.5625 71.75C33.25 72.2083 32.8958 72.6562 32.5 73.0938C32.1042 73.5208 31.6823 73.9062 31.2344 74.25C30.7969 74.5833 30.3438 74.8542 29.875 75.0625C29.4167 75.2708 28.9688 75.375 28.5312 75.375C28.3021 75.375 28.0521 75.3177 27.7812 75.2031C27.5208 75.099 27.2812 74.9323 27.0625 74.7031C26.8438 74.474 26.6667 74.1771 26.5312 73.8125C26.4062 73.4479 26.3698 73.0052 26.4219 72.4844C26.4635 72.0573 26.5938 71.6094 26.8125 71.1406C27.0417 70.6615 27.3177 70.224 27.6406 69.8281C27.974 69.4323 28.3438 69.1042 28.75 68.8438C29.1667 68.5833 29.5833 68.4531 30 68.4531C30.3958 68.4531 30.6823 68.5521 30.8594 68.75C31.0365 68.9479 31.1146 69.1927 31.0938 69.4844C31.0625 69.8073 30.9688 70.1042 30.8125 70.375C30.6667 70.6458 30.4896 70.8906 30.2812 71.1094C30.0729 71.3281 29.849 71.526 29.6094 71.7031C29.3802 71.8802 29.1615 72.0417 28.9531 72.1875C28.724 72.3438 28.5052 72.4948 28.2969 72.6406C28.0885 72.776 27.9062 72.901 27.75 73.0156C27.7604 73.276 27.8073 73.4948 27.8906 73.6719C27.974 73.849 28.0781 73.9948 28.2031 74.1094C28.3281 74.2135 28.4688 74.2917 28.625 74.3438C28.7917 74.3854 28.9583 74.4062 29.125 74.4062C29.4792 74.4062 29.849 74.2969 30.2344 74.0781C30.6198 73.849 30.9948 73.5781 31.3594 73.2656C31.7344 72.9427 32.0781 72.6094 32.3906 72.2656C32.7135 71.9219 32.9792 71.625 33.1875 71.375C33.2604 71.2917 33.3333 71.2448 33.4062 71.2344C33.4896 71.2135 33.5521 71.224 33.5938 71.2656C33.6458 71.2969 33.6719 71.3594 33.6719 71.4531C33.6719 71.5365 33.6354 71.6354 33.5625 71.75ZM29.5625 69.3438C29.4375 69.3438 29.2865 69.4062 29.1094 69.5312C28.9427 69.6562 28.776 69.8385 28.6094 70.0781C28.4427 70.3073 28.2865 70.5938 28.1406 70.9375C27.9948 71.2708 27.8854 71.6562 27.8125 72.0938C27.9375 72 28.0729 71.9062 28.2188 71.8125C28.3646 71.7083 28.5104 71.599 28.6562 71.4844C29.1042 71.1406 29.4167 70.8385 29.5938 70.5781C29.7708 70.3177 29.8698 70.0938 29.8906 69.9062C29.9115 69.7083 29.8906 69.5677 29.8281 69.4844C29.7656 69.3906 29.6771 69.3438 29.5625 69.3438ZM39.5156 71.75C39.2031 72.2083 38.849 72.6562 38.4531 73.0938C38.0573 73.5208 37.6354 73.9062 37.1875 74.25C36.75 74.5833 36.2969 74.8542 35.8281 75.0625C35.3698 75.2708 34.9219 75.375 34.4844 75.375C34.2552 75.375 34.0052 75.3177 33.7344 75.2031C33.474 75.099 33.2344 74.9323 33.0156 74.7031C32.7969 74.474 32.6198 74.1771 32.4844 73.8125C32.3594 73.4479 32.3229 73.0052 32.375 72.4844C32.4167 72.0573 32.5469 71.6094 32.7656 71.1406C32.9948 70.6615 33.2708 70.224 33.5938 69.8281C33.9271 69.4323 34.2969 69.1042 34.7031 68.8438C35.1198 68.5833 35.5365 68.4531 35.9531 68.4531C36.349 68.4531 36.6354 68.5521 36.8125 68.75C36.9896 68.9479 37.0677 69.1927 37.0469 69.4844C37.0156 69.8073 36.9219 70.1042 36.7656 70.375C36.6198 70.6458 36.4427 70.8906 36.2344 71.1094C36.026 71.3281 35.8021 71.526 35.5625 71.7031C35.3333 71.8802 35.1146 72.0417 34.9062 72.1875C34.6771 72.3438 34.4583 72.4948 34.25 72.6406C34.0417 72.776 33.8594 72.901 33.7031 73.0156C33.7135 73.276 33.7604 73.4948 33.8438 73.6719C33.9271 73.849 34.0312 73.9948 34.1562 74.1094C34.2812 74.2135 34.4219 74.2917 34.5781 74.3438C34.7448 74.3854 34.9115 74.4062 35.0781 74.4062C35.4323 74.4062 35.8021 74.2969 36.1875 74.0781C36.5729 73.849 36.9479 73.5781 37.3125 73.2656C37.6875 72.9427 38.0312 72.6094 38.3438 72.2656C38.6667 71.9219 38.9323 71.625 39.1406 71.375C39.2135 71.2917 39.2865 71.2448 39.3594 71.2344C39.4427 71.2135 39.5052 71.224 39.5469 71.2656C39.599 71.2969 39.625 71.3594 39.625 71.4531C39.625 71.5365 39.5885 71.6354 39.5156 71.75ZM35.5156 69.3438C35.3906 69.3438 35.2396 69.4062 35.0625 69.5312C34.8958 69.6562 34.7292 69.8385 34.5625 70.0781C34.3958 70.3073 34.2396 70.5938 34.0938 70.9375C33.9479 71.2708 33.8385 71.6562 33.7656 72.0938C33.8906 72 34.026 71.9062 34.1719 71.8125C34.3177 71.7083 34.4635 71.599 34.6094 71.4844C35.0573 71.1406 35.3698 70.8385 35.5469 70.5781C35.724 70.3177 35.8229 70.0938 35.8438 69.9062C35.8646 69.7083 35.8438 69.5677 35.7812 69.4844C35.7188 69.3906 35.6302 69.3438 35.5156 69.3438ZM46.4531 71.5625C46.526 71.4792 46.599 71.4375 46.6719 71.4375C46.7552 71.4271 46.8177 71.4479 46.8594 71.5C46.9115 71.5417 46.9323 71.6094 46.9219 71.7031C46.9219 71.7969 46.8802 71.901 46.7969 72.0156C46.599 72.2865 46.3698 72.5677 46.1094 72.8594C45.849 73.1406 45.5677 73.4167 45.2656 73.6875C44.974 73.9583 44.6771 74.2135 44.375 74.4531C44.0729 74.6927 43.7812 74.8906 43.5 75.0469C43.1875 75.224 42.9219 75.3125 42.7031 75.3125C42.4948 75.3125 42.2865 75.1771 42.0781 74.9062C41.8906 74.6667 41.7969 74.4115 41.7969 74.1406C41.8073 73.8594 41.8698 73.5104 41.9844 73.0938C42.0573 72.8333 42.1562 72.526 42.2812 72.1719C42.4167 71.8073 42.5208 71.4583 42.5938 71.125C42.6771 70.7917 42.7031 70.5104 42.6719 70.2812C42.6406 70.0417 42.5052 69.9219 42.2656 69.9219C42.099 69.9219 41.9167 69.9792 41.7188 70.0938C41.5312 70.2083 41.3385 70.3594 41.1406 70.5469C40.9531 70.724 40.7708 70.9271 40.5938 71.1562C40.4167 71.3854 40.2604 71.6094 40.125 71.8281C40.0417 72.2344 39.9583 72.6354 39.875 73.0312C39.8021 73.3646 39.724 73.7292 39.6406 74.125C39.5677 74.5104 39.4948 74.8542 39.4219 75.1562C39.3594 75.2083 39.2917 75.2448 39.2188 75.2656C39.1458 75.2865 39.0781 75.2969 39.0156 75.2969C38.9427 75.2969 38.8698 75.2917 38.7969 75.2812C38.7135 75.2604 38.6354 75.2292 38.5625 75.1875C38.5 75.1458 38.4375 75.0885 38.375 75.0156C38.3125 74.9531 38.2656 74.8646 38.2344 74.75C38.7031 72.8229 39.0729 71.276 39.3438 70.1094C39.6146 68.9427 39.8229 68.0521 39.9688 67.4375C40.1354 66.7083 40.25 66.2031 40.3125 65.9219C40.3438 65.724 40.3698 65.5312 40.3906 65.3438C40.4115 65.1771 40.4219 65.0052 40.4219 64.8281C40.4219 64.651 40.4062 64.4896 40.375 64.3438C40.4583 64.2917 40.5469 64.25 40.6406 64.2188C40.7448 64.1875 40.8438 64.1615 40.9375 64.1406C41.0521 64.1094 41.1667 64.0833 41.2812 64.0625C41.3958 64.0417 41.5 64.0312 41.5938 64.0312C41.6771 64.0312 41.7552 64.0417 41.8281 64.0625C41.901 64.0729 41.9479 64.1042 41.9688 64.1562C42.0312 64.2083 42.0573 64.3125 42.0469 64.4688C42.0469 64.625 42.0365 64.7865 42.0156 64.9531C41.974 65.151 41.9271 65.3646 41.875 65.5938C41.6562 66.4375 41.4115 67.2604 41.1406 68.0625C40.8698 68.8542 40.6198 69.7031 40.3906 70.6094C40.526 70.401 40.6875 70.1875 40.875 69.9688C41.0625 69.75 41.2656 69.5521 41.4844 69.375C41.7135 69.1875 41.9531 69.0365 42.2031 68.9219C42.4531 68.7969 42.7188 68.7344 43 68.7344C43.1458 68.7344 43.2812 68.7604 43.4062 68.8125C43.5417 68.8542 43.6562 68.9323 43.75 69.0469C43.8542 69.151 43.9323 69.2969 43.9844 69.4844C44.0365 69.6615 44.0573 69.8854 44.0469 70.1562C44.0469 70.3229 44.026 70.4948 43.9844 70.6719C43.9531 70.849 43.9062 71.0469 43.8438 71.2656C43.7812 71.474 43.6979 71.7083 43.5938 71.9688C43.5 72.2292 43.3854 72.5312 43.25 72.875C43.1562 73.1146 43.0833 73.3177 43.0312 73.4844C42.9792 73.651 42.9896 73.7969 43.0625 73.9219C43.1562 74.0885 43.3385 74.1302 43.6094 74.0469C43.8906 73.9531 44.3073 73.6823 44.8594 73.2344C44.9844 73.1302 45.125 73 45.2812 72.8438C45.4375 72.6875 45.5885 72.5312 45.7344 72.375C45.8802 72.2083 46.0156 72.0521 46.1406 71.9062C46.2656 71.7604 46.3698 71.6458 46.4531 71.5625ZM50.4688 72.5156C50.3646 72.9115 50.224 73.2812 50.0469 73.625C49.8698 73.9688 49.6562 74.2656 49.4062 74.5156C49.1667 74.7656 48.8906 74.9583 48.5781 75.0938C48.276 75.2396 47.9427 75.3125 47.5781 75.3125C47.151 75.3125 46.8125 75.2188 46.5625 75.0312C46.3229 74.8542 46.1406 74.6302 46.0156 74.3594C45.901 74.0885 45.8333 73.7917 45.8125 73.4688C45.7812 73.1458 45.7656 72.8438 45.7656 72.5625C45.7656 72.3646 45.7917 72.1458 45.8438 71.9062C45.8854 71.6667 45.9479 71.4219 46.0312 71.1719C46.1146 70.9219 46.2188 70.6719 46.3438 70.4219C46.4792 70.1719 46.6354 69.9427 46.8125 69.7344C46.875 69.5573 46.9688 69.401 47.0938 69.2656C47.2292 69.1302 47.3802 69.0208 47.5469 68.9375C47.724 68.8438 47.9115 68.776 48.1094 68.7344C48.3073 68.6823 48.5 68.6562 48.6875 68.6562C48.7188 68.6562 48.7448 68.6615 48.7656 68.6719C48.7969 68.6823 48.8281 68.6927 48.8594 68.7031C48.9948 68.7135 49.1615 68.7656 49.3594 68.8594C49.5677 68.9531 49.7656 69.0938 49.9531 69.2812C50.151 69.4688 50.3177 69.7083 50.4531 70C50.5885 70.2812 50.6562 70.625 50.6562 71.0312C50.6562 71.1146 50.651 71.2188 50.6406 71.3438C50.6302 71.4583 50.6198 71.5573 50.6094 71.6406C50.849 71.5469 51.099 71.4323 51.3594 71.2969C51.6198 71.1615 51.8698 71.0208 52.1094 70.875C52.3594 70.7188 52.5885 70.5625 52.7969 70.4062C53.0052 70.25 53.1719 70.1094 53.2969 69.9844C53.401 69.8906 53.4896 69.8385 53.5625 69.8281C53.6354 69.8177 53.6875 69.8385 53.7188 69.8906C53.75 69.9427 53.7552 70.0156 53.7344 70.1094C53.7135 70.2031 53.6562 70.3073 53.5625 70.4219C53.5104 70.4844 53.375 70.6094 53.1562 70.7969C52.9479 70.9844 52.6979 71.1875 52.4062 71.4062C52.1146 71.625 51.7969 71.8385 51.4531 72.0469C51.1094 72.2552 50.7812 72.4115 50.4688 72.5156ZM47.8281 70.1406C47.7969 70.2344 47.7812 70.3333 47.7812 70.4375C47.7812 70.6042 47.7917 70.7812 47.8125 70.9688C47.8333 71.1458 47.8854 71.3073 47.9688 71.4531C48.0521 71.599 48.1823 71.724 48.3594 71.8281C48.5469 71.9219 48.8021 71.9688 49.125 71.9688C49.1771 71.9688 49.2292 71.9688 49.2812 71.9688C49.3333 71.9583 49.3854 71.9479 49.4375 71.9375C49.4688 71.8021 49.4948 71.6823 49.5156 71.5781C49.5469 71.4635 49.5625 71.3646 49.5625 71.2812C49.5833 71.0833 49.5833 70.8802 49.5625 70.6719C49.5417 70.4635 49.5 70.276 49.4375 70.1094C49.3854 69.9323 49.3125 69.7917 49.2188 69.6875C49.1354 69.5729 49.0312 69.5156 48.9062 69.5156C48.7083 69.5156 48.5156 69.5729 48.3281 69.6875C48.151 69.7917 47.9844 69.9427 47.8281 70.1406ZM46.8281 72.8906C46.8281 73.0781 46.8385 73.2656 46.8594 73.4531C46.8802 73.6302 46.9219 73.7917 46.9844 73.9375C47.0469 74.0729 47.1302 74.1875 47.2344 74.2812C47.3385 74.3646 47.474 74.4062 47.6406 74.4062C47.8281 74.4062 48 74.3646 48.1562 74.2812C48.3125 74.1875 48.4531 74.0729 48.5781 73.9375C48.7031 73.7917 48.8125 73.6302 48.9062 73.4531C49.0104 73.2656 49.099 73.0729 49.1719 72.875C49.099 72.8854 49.026 72.8958 48.9531 72.9062C48.8906 72.9062 48.8177 72.9062 48.7344 72.9062C48.3385 72.9062 47.9948 72.7917 47.7031 72.5625C47.4219 72.3229 47.2031 72.0208 47.0469 71.6562C46.9844 71.875 46.9323 72.0885 46.8906 72.2969C46.849 72.5052 46.8281 72.7031 46.8281 72.8906ZM54.0781 75.25C53.6823 75.25 53.3594 75.1875 53.1094 75.0625C52.8594 74.9375 52.6615 74.7865 52.5156 74.6094C52.3802 74.4219 52.2812 74.224 52.2188 74.0156C52.1667 73.7969 52.1406 73.599 52.1406 73.4219C52.1406 73.1094 52.1667 72.7812 52.2188 72.4375C52.2708 72.0833 52.3333 71.7604 52.4062 71.4688C52.4792 71.1667 52.5417 70.9115 52.5938 70.7031C52.6562 70.4948 52.6979 70.3646 52.7188 70.3125C52.8125 70.0104 52.9323 69.75 53.0781 69.5312C53.2344 69.3021 53.4479 69.1458 53.7188 69.0625C53.8229 69.0417 53.9323 69.0208 54.0469 69C54.1406 68.9896 54.2344 68.9844 54.3281 68.9844C54.4323 68.9844 54.526 69 54.6094 69.0312C54.3281 69.75 54.1042 70.349 53.9375 70.8281C53.7812 71.3073 53.6615 71.6979 53.5781 72C53.4844 72.3438 53.4271 72.6198 53.4062 72.8281C53.3542 73.2969 53.3958 73.651 53.5312 73.8906C53.6667 74.1302 53.9427 74.25 54.3594 74.25C54.6302 74.25 54.8906 74.151 55.1406 73.9531C55.3906 73.7448 55.6198 73.4792 55.8281 73.1562C55.7969 72.9896 55.7812 72.8177 55.7812 72.6406C55.7812 72.3073 55.8073 71.9844 55.8594 71.6719C55.9219 71.349 55.9896 71.0521 56.0625 70.7812C56.1458 70.5 56.2292 70.25 56.3125 70.0312C56.4062 69.8125 56.4844 69.6406 56.5469 69.5156C56.6615 69.2656 56.7656 69.1146 56.8594 69.0625C56.9531 69 57.1042 68.9635 57.3125 68.9531C57.3958 68.9427 57.4635 68.9427 57.5156 68.9531C57.5781 68.9531 57.6302 68.9583 57.6719 68.9688C57.7969 69 57.8594 69.0625 57.8594 69.1562C57.8594 69.3229 57.849 69.5729 57.8281 69.9062C57.8073 70.2396 57.7448 70.5833 57.6406 70.9375C57.5677 71.2292 57.4948 71.4792 57.4219 71.6875C57.3594 71.8854 57.2969 72.0573 57.2344 72.2031C57.1719 72.3385 57.1094 72.4531 57.0469 72.5469C56.9844 72.6302 56.9271 72.7083 56.875 72.7812C56.8958 73.0938 56.9219 73.3438 56.9531 73.5312C56.9844 73.7188 57.0208 73.8646 57.0625 73.9688C57.1146 74.0625 57.1719 74.1302 57.2344 74.1719C57.3073 74.2031 57.3854 74.2188 57.4688 74.2188C57.6146 74.2188 57.7865 74.151 57.9844 74.0156C58.1823 73.8698 58.3854 73.6927 58.5938 73.4844C58.8125 73.2656 59.026 73.0312 59.2344 72.7812C59.4531 72.5208 59.651 72.276 59.8281 72.0469C60.0052 71.8177 60.1562 71.6198 60.2812 71.4531C60.4062 71.276 60.4844 71.1667 60.5156 71.125C60.5885 71.0312 60.6562 70.974 60.7188 70.9531C60.7917 70.9323 60.849 70.9427 60.8906 70.9844C60.9323 71.0156 60.9531 71.0729 60.9531 71.1562C60.9635 71.2292 60.9427 71.3125 60.8906 71.4062C60.6823 71.8021 60.4219 72.224 60.1094 72.6719C59.8073 73.1094 59.4792 73.5156 59.125 73.8906C58.7812 74.2656 58.4323 74.5781 58.0781 74.8281C57.724 75.0781 57.3906 75.2031 57.0781 75.2031C56.7969 75.2031 56.5729 75.1094 56.4062 74.9219C56.25 74.724 56.1146 74.4427 56 74.0781C55.7604 74.4531 55.4792 74.7448 55.1562 74.9531C54.8333 75.151 54.474 75.25 54.0781 75.25ZM61.8438 74.4688C61.9062 74.5104 61.9844 74.5312 62.0781 74.5312C62.1823 74.5312 62.2812 74.5104 62.375 74.4688C62.4792 74.4271 62.5729 74.3698 62.6562 74.2969C62.75 74.224 62.8177 74.1302 62.8594 74.0156C62.901 73.901 62.901 73.7396 62.8594 73.5312C62.8177 73.3125 62.75 73.0833 62.6562 72.8438C62.5729 72.5938 62.4792 72.3438 62.375 72.0938C62.2708 71.8438 62.1823 71.6146 62.1094 71.4062C62.0469 71.25 61.9948 71.1042 61.9531 70.9688C61.9115 70.8542 61.8698 70.7448 61.8281 70.6406C61.7969 70.526 61.7708 70.4479 61.75 70.4062C61.6979 70.4896 61.6042 70.625 61.4688 70.8125C61.3438 71 61.2031 71.1979 61.0469 71.4062C60.901 71.6042 60.7604 71.7917 60.625 71.9688C60.4896 72.1354 60.3958 72.25 60.3438 72.3125C60.2604 72.4062 60.1771 72.4635 60.0938 72.4844C60.0208 72.4948 59.9583 72.4792 59.9062 72.4375C59.8542 72.3854 59.8229 72.3177 59.8125 72.2344C59.8125 72.1406 59.8542 72.0312 59.9375 71.9062C60 71.8229 60.0938 71.6927 60.2188 71.5156C60.3438 71.3281 60.4688 71.1406 60.5938 70.9531C60.7188 70.7552 60.8333 70.5833 60.9375 70.4375C61.0417 70.2812 61.099 70.1875 61.1094 70.1562C61.1302 70.0729 61.099 69.9635 61.0156 69.8281C60.9427 69.6927 60.9323 69.5365 60.9844 69.3594C61.026 69.2135 61.1198 69.0469 61.2656 68.8594C61.4115 68.6615 61.5833 68.4844 61.7812 68.3281C61.9792 68.1719 62.1823 68.0573 62.3906 67.9844C62.599 67.901 62.7865 67.901 62.9531 67.9844C63.0885 68.0677 63.1979 68.1615 63.2812 68.2656C63.3646 68.3594 63.3958 68.4583 63.375 68.5625C63.3542 68.6146 63.3229 68.6823 63.2812 68.7656C63.2396 68.849 63.1771 68.9531 63.0938 69.0781C63.0104 69.1927 62.8906 69.3438 62.7344 69.5312C62.7656 69.7708 62.8073 69.9896 62.8594 70.1875C62.9219 70.3854 62.9792 70.5573 63.0312 70.7031C63.0938 70.8802 63.1615 71.0417 63.2344 71.1875C63.3281 71.375 63.4271 71.5677 63.5312 71.7656C63.6354 71.9635 63.7292 72.1615 63.8125 72.3594C63.8958 72.5469 63.9635 72.724 64.0156 72.8906C64.0677 73.0573 64.0833 73.1979 64.0625 73.3125C64.0312 73.4896 63.9375 73.7031 63.7812 73.9531C63.6354 74.2031 63.4479 74.4479 63.2188 74.6875C63 74.9167 62.7448 75.1146 62.4531 75.2812C62.1719 75.4479 61.875 75.5312 61.5625 75.5312C61.3438 75.5312 61.1302 75.4635 60.9219 75.3281C60.724 75.1927 60.5521 75.0365 60.4062 74.8594C60.2708 74.6719 60.1667 74.4896 60.0938 74.3125C60.0312 74.1354 60.026 74 60.0781 73.9062C60.1406 73.7812 60.1979 73.6823 60.25 73.6094C60.3021 73.5365 60.3802 73.4531 60.4844 73.3594C60.526 73.3281 60.5781 73.2917 60.6406 73.25C60.6927 73.2188 60.7656 73.1875 60.8594 73.1562C60.9531 73.125 61.0625 73.0885 61.1875 73.0469C61.2917 73.3698 61.3854 73.625 61.4688 73.8125C61.5521 73.9896 61.6198 74.1302 61.6719 74.2344C61.7344 74.349 61.7917 74.4271 61.8438 74.4688ZM72.3438 71.75C72.0312 72.2083 71.6771 72.6562 71.2812 73.0938C70.8854 73.5208 70.4635 73.9062 70.0156 74.25C69.5781 74.5833 69.125 74.8542 68.6562 75.0625C68.1979 75.2708 67.75 75.375 67.3125 75.375C67.0833 75.375 66.8333 75.3177 66.5625 75.2031C66.3021 75.099 66.0625 74.9323 65.8438 74.7031C65.625 74.474 65.4479 74.1771 65.3125 73.8125C65.1875 73.4479 65.151 73.0052 65.2031 72.4844C65.2448 72.0573 65.375 71.6094 65.5938 71.1406C65.8229 70.6615 66.099 70.224 66.4219 69.8281C66.7552 69.4323 67.125 69.1042 67.5312 68.8438C67.9479 68.5833 68.3646 68.4531 68.7812 68.4531C69.1771 68.4531 69.4635 68.5521 69.6406 68.75C69.8177 68.9479 69.8958 69.1927 69.875 69.4844C69.8438 69.8073 69.75 70.1042 69.5938 70.375C69.4479 70.6458 69.2708 70.8906 69.0625 71.1094C68.8542 71.3281 68.6302 71.526 68.3906 71.7031C68.1615 71.8802 67.9427 72.0417 67.7344 72.1875C67.5052 72.3438 67.2865 72.4948 67.0781 72.6406C66.8698 72.776 66.6875 72.901 66.5312 73.0156C66.5417 73.276 66.5885 73.4948 66.6719 73.6719C66.7552 73.849 66.8594 73.9948 66.9844 74.1094C67.1094 74.2135 67.25 74.2917 67.4062 74.3438C67.5729 74.3854 67.7396 74.4062 67.9062 74.4062C68.2604 74.4062 68.6302 74.2969 69.0156 74.0781C69.401 73.849 69.776 73.5781 70.1406 73.2656C70.5156 72.9427 70.8594 72.6094 71.1719 72.2656C71.4948 71.9219 71.7604 71.625 71.9688 71.375C72.0417 71.2917 72.1146 71.2448 72.1875 71.2344C72.2708 71.2135 72.3333 71.224 72.375 71.2656C72.4271 71.2969 72.4531 71.3594 72.4531 71.4531C72.4531 71.5365 72.4167 71.6354 72.3438 71.75ZM68.3438 69.3438C68.2188 69.3438 68.0677 69.4062 67.8906 69.5312C67.724 69.6562 67.5573 69.8385 67.3906 70.0781C67.224 70.3073 67.0677 70.5938 66.9219 70.9375C66.776 71.2708 66.6667 71.6562 66.5938 72.0938C66.7188 72 66.8542 71.9062 67 71.8125C67.1458 71.7083 67.2917 71.599 67.4375 71.4844C67.8854 71.1406 68.1979 70.8385 68.375 70.5781C68.5521 70.3177 68.651 70.0938 68.6719 69.9062C68.6927 69.7083 68.6719 69.5677 68.6094 69.4844C68.5469 69.3906 68.4583 69.3438 68.3438 69.3438Z" fill="#747474"/>
<path d="M16.8475 31.2958C16.9363 30.7036 17.2347 30.163 17.6885 29.7722C18.1422 29.3815 18.7212 29.1666 19.32 29.1666H30.8466C31.4455 29.1666 32.0244 29.3815 32.4781 29.7722C32.9319 30.163 33.2303 30.7036 33.3191 31.2958L35.0691 42.9625C35.1225 43.3181 35.0985 43.6812 34.9987 44.0267C34.899 44.3723 34.7258 44.6922 34.4911 44.9647C34.2564 45.2373 33.9656 45.4559 33.6387 45.6058C33.3117 45.7557 32.9563 45.8333 32.5966 45.8333H17.57C17.2103 45.8333 16.8549 45.7557 16.5279 45.6058C16.201 45.4559 15.9102 45.2373 15.6755 44.9647C15.4408 44.6922 15.2677 44.3723 15.1679 44.0267C15.0682 43.6812 15.0441 43.3181 15.0975 42.9625L16.8475 31.2958Z" fill="white"/>
<path fill-rule="evenodd" clip-rule="evenodd" d="M20.2867 29.1667H19.32C18.7212 29.1666 18.1423 29.3815 17.6885 29.7723C17.2348 30.163 16.9363 30.7037 16.8475 31.2958L15.0975 42.9625C15.055 43.2458 15.0617 43.525 15.1108 43.79C14.4779 43.4824 13.9443 43.003 13.5711 42.4064C13.1978 41.8099 12.9999 41.1204 13 40.4167V30.4167C12.9992 29.5315 13.3116 28.6746 13.8819 27.9976C14.4522 27.3206 15.2435 26.8671 16.116 26.7174C16.9884 26.5678 17.8856 26.7316 18.6489 27.1798C19.4122 27.628 19.9924 28.3319 20.2867 29.1667Z" fill="white"/>
<path fill-rule="evenodd" clip-rule="evenodd" d="M18 45.8333H32.1667C32.8297 45.8333 33.4656 45.5699 33.9344 45.1011C34.4033 44.6323 34.6667 43.9964 34.6667 43.3333V37.5H15.5V43.3333C15.5 43.9964 15.7634 44.6323 16.2322 45.1011C16.7011 45.5699 17.337 45.8333 18 45.8333Z" fill="#6A462F"/>
<path fill-rule="evenodd" clip-rule="evenodd" d="M13.8333 10C13.6123 10 13.4004 10.0878 13.2441 10.2441C13.0878 10.4004 13 10.6123 13 10.8333V21.6667H38.8333V45.8333H13V49.1667C13 49.3877 13.0878 49.5996 13.2441 49.7559C13.4004 49.9122 13.6123 50 13.8333 50H52.1667C52.3877 50 52.5996 49.9122 52.7559 49.7559C52.9122 49.5996 53 49.3877 53 49.1667V10.8333C53 10.6123 52.9122 10.4004 52.7559 10.2441C52.5996 10.0878 52.3877 10 52.1667 10H13.8333Z" fill="white"/>
<path d="M46.3335 15.8334H44.6668C44.2066 15.8334 43.8335 16.2065 43.8335 16.6667V31.6667C43.8335 32.1269 44.2066 32.5 44.6668 32.5H46.3335C46.7937 32.5 47.1668 32.1269 47.1668 31.6667V16.6667C47.1668 16.2065 46.7937 15.8334 46.3335 15.8334Z" fill="#D0CFCE"/>
<path d="M45.9168 40.8333C47.0674 40.8333 48.0002 39.9006 48.0002 38.75C48.0002 37.5994 47.0674 36.6666 45.9168 36.6666C44.7662 36.6666 43.8335 37.5994 43.8335 38.75C43.8335 39.9006 44.7662 40.8333 45.9168 40.8333Z" fill="#D22F27" stroke="#D0CFCE" stroke-width="2"/>
<path d="M17.1665 24.1666H32.9998V29.1666H17.1665V24.1666Z" fill="white"/>
<path d="M19.32 29.1666C18.7212 29.1666 18.1423 29.3815 17.6885 29.7722C17.2348 30.163 16.9363 30.7036 16.8475 31.2958L15.0975 42.9625C15.055 43.2458 15.0617 43.525 15.1108 43.79C14.4779 43.4824 13.9443 43.0029 13.5711 42.4064C13.1978 41.8098 12.9999 41.1203 13 40.4166V30.4166C13 29.4221 13.3951 28.4682 14.0983 27.765C14.8016 27.0617 15.7554 26.6666 16.75 26.6666" stroke="black" stroke-width="2" stroke-linecap="round"/>
<path d="M12.9998 21.6666H12.1665C12.1665 21.8876 12.2543 22.0996 12.4106 22.2559C12.5669 22.4122 12.7788 22.5 12.9998 22.5V21.6666ZM38.8332 21.6666H39.6665C39.6665 21.4456 39.5787 21.2336 39.4224 21.0774C39.2661 20.9211 39.0542 20.8333 38.8332 20.8333V21.6666ZM38.8332 45.8333V46.6666C39.0542 46.6666 39.2661 46.5788 39.4224 46.4225C39.5787 46.2663 39.6665 46.0543 39.6665 45.8333H38.8332ZM12.9998 45.8333V45C12.7788 45 12.5669 45.0878 12.4106 45.244C12.2543 45.4003 12.1665 45.6123 12.1665 45.8333H12.9998ZM13.8332 10.8333V9.16663C13.3911 9.16663 12.9672 9.34222 12.6547 9.65478C12.3421 9.96734 12.1665 10.3913 12.1665 10.8333H13.8332ZM13.8332 21.6666V10.8333H12.1665V21.6666H13.8332ZM12.9998 22.5H38.8332V20.8333H12.9998V22.5ZM37.9998 21.6666V45.8333H39.6665V21.6666H37.9998ZM38.8332 45H12.9998V46.6666H38.8332V45ZM13.8332 49.1666V45.8333H12.1665V49.1666H13.8332ZM13.8332 49.1666H12.1665C12.1665 49.6087 12.3421 50.0326 12.6547 50.3451C12.9672 50.6577 13.3911 50.8333 13.8332 50.8333V49.1666ZM52.1665 49.1666H13.8332V50.8333H52.1665V49.1666ZM52.1665 49.1666V50.8333C52.6085 50.8333 53.0325 50.6577 53.345 50.3451C53.6576 50.0326 53.8332 49.6087 53.8332 49.1666H52.1665ZM52.1665 10.8333V49.1666H53.8332V10.8333H52.1665ZM52.1665 10.8333H53.8332C53.8332 10.3913 53.6576 9.96734 53.345 9.65478C53.0325 9.34222 52.6085 9.16663 52.1665 9.16663V10.8333ZM13.8332 10.8333H52.1665V9.16663H13.8332V10.8333Z" fill="black"/>
<path d="M13 21.6666H38.4167" stroke="black" stroke-width="2"/>
<path d="M36.333 21.6666V10.4166" stroke="black" stroke-width="2"/>
<path d="M13 45.8333H53H13Z" fill="black"/>
<path d="M13 45.8333H53" stroke="black" stroke-width="2"/>
<path d="M45.9163 40.8333C45.3638 40.8333 44.8339 40.6138 44.4432 40.2231C44.0525 39.8324 43.833 39.3025 43.833 38.75C43.833 38.1974 44.0525 37.6675 44.4432 37.2768C44.8339 36.8861 45.3638 36.6666 45.9163 36.6666" stroke="black" stroke-width="2" stroke-linecap="round"/>
<path d="M16.8475 31.2958C16.9363 30.7036 17.2347 30.163 17.6885 29.7722C18.1422 29.3815 18.7212 29.1666 19.32 29.1666H30.8466C31.4455 29.1666 32.0244 29.3815 32.4781 29.7722C32.9319 30.163 33.2303 30.7036 33.3191 31.2958L35.0691 42.9625C35.1225 43.3181 35.0985 43.6812 34.9987 44.0267C34.899 44.3723 34.7258 44.6922 34.4911 44.9647C34.2564 45.2373 33.9656 45.4559 33.6387 45.6058C33.3117 45.7557 32.9563 45.8333 32.5966 45.8333H17.57C17.2103 45.8333 16.8549 45.7557 16.5279 45.6058C16.201 45.4559 15.9102 45.2373 15.6755 44.9647C15.4408 44.6922 15.2677 44.3723 15.1679 44.0267C15.0682 43.6812 15.0441 43.3181 15.0975 42.9625L16.8475 31.2958Z" stroke="black" stroke-width="2"/>
<path d="M17.1665 24.1666H32.9998V29.1666H17.1665V24.1666Z" stroke="black" stroke-width="2" stroke-linejoin="round"/>
<path d="M44.6665 16.6666V31.6666V16.6666Z" fill="black"/>
<path d="M44.6665 16.6666V31.6666" stroke="black" stroke-width="2" stroke-linecap="round"/>
<path d="M44.6665 16.6666H46.3332" stroke="black" stroke-width="2" stroke-linecap="round"/>
<path d="M44.6665 31.6666H46.3332" stroke="black" stroke-width="2" stroke-linecap="round"/>
<path d="M44.6665 24.1666H46.3332" stroke="black" stroke-width="2" stroke-linecap="round"/>
</svg>
