<svg width="75" height="21" viewBox="0 0 75 21" fill="none" xmlns="http://www.w3.org/2000/svg">
<g clip-path="url(#clip0_33_71)">
<path d="M10.9904 10.4375L11.4071 7.72299H8.8023V5.96143C8.8023 5.21893 9.16605 4.49471 10.3328 4.49471H11.5168V2.18377C11.5168 2.18377 10.4425 2.00049 9.41496 2.00049C7.26996 2.00049 5.86793 3.3008 5.86793 5.65439V7.72346H3.4834V10.438H5.86793V17.0005H8.8023V10.438L10.9904 10.4375Z" fill="black"/>
</g>
<path d="M68.704 7.24107C69.2259 7.24107 69.649 6.81798 69.649 6.29607C69.649 5.77416 69.2259 5.35107 68.704 5.35107C68.1821 5.35107 67.759 5.77416 67.759 6.29607C67.759 6.81798 68.1821 7.24107 68.704 7.24107Z" fill="black"/>
<path d="M64.5001 6.45618C63.7003 6.45618 62.9185 6.69334 62.2535 7.13768C61.5885 7.58202 61.0702 8.21358 60.7641 8.95249C60.4581 9.6914 60.378 10.5045 60.534 11.2889C60.69 12.0733 61.0752 12.7939 61.6407 13.3594C62.2062 13.9249 62.9268 14.3101 63.7112 14.4661C64.4956 14.6221 65.3087 14.5421 66.0476 14.236C66.7865 13.9299 67.4181 13.4116 67.8624 12.7466C68.3068 12.0816 68.5439 11.2998 68.5439 10.5C68.5439 9.4275 68.1179 8.39894 67.3595 7.64058C66.6012 6.88222 65.5726 6.45618 64.5001 6.45618ZM64.5001 13.125C63.9809 13.125 63.4734 12.971 63.0417 12.6826C62.6101 12.3942 62.2736 11.9842 62.0749 11.5045C61.8762 11.0249 61.8243 10.4971 61.9256 9.98788C62.0268 9.47868 62.2768 9.01095 62.644 8.64383C63.0111 8.27672 63.4788 8.02671 63.988 7.92543C64.4972 7.82414 65.025 7.87612 65.5047 8.07481C65.9843 8.27349 66.3943 8.60994 66.6827 9.04162C66.9712 9.4733 67.1251 9.98081 67.1251 10.5C67.1251 11.1962 66.8486 11.8639 66.3563 12.3561C65.864 12.8484 65.1963 13.125 64.5001 13.125Z" fill="black"/>
<path d="M64.5 4.04381C66.6026 4.04381 66.852 4.05169 67.6822 4.08975C68.1815 4.09568 68.676 4.18736 69.1443 4.36078C69.484 4.49183 69.7925 4.69255 70.05 4.95001C70.3075 5.20748 70.5082 5.516 70.6392 5.85572C70.8126 6.32397 70.9043 6.81854 70.9102 7.31784C70.9483 8.148 70.9562 8.39737 70.9562 10.5007C70.9562 12.6039 70.9483 12.852 70.9102 13.6822C70.9043 14.1815 70.8126 14.676 70.6392 15.1443C70.5082 15.484 70.3075 15.7925 70.05 16.05C69.7925 16.3075 69.484 16.5082 69.1443 16.6392C68.676 16.8126 68.1815 16.9043 67.6822 16.9102C66.852 16.9483 66.6026 16.9562 64.5 16.9562C62.3974 16.9562 62.148 16.9483 61.3178 16.9102C60.8185 16.9043 60.324 16.8126 59.8557 16.6392C59.516 16.5082 59.2075 16.3075 58.95 16.05C58.6925 15.7925 58.4918 15.484 58.3608 15.1443C58.1874 14.676 58.0957 14.1815 58.0897 13.6822C58.0517 12.852 58.0438 12.6026 58.0438 10.5C58.0438 8.39738 58.0517 8.148 58.0897 7.31784C58.0957 6.81854 58.1874 6.32397 58.3608 5.85572C58.4918 5.516 58.6925 5.20748 58.95 4.95001C59.2075 4.69255 59.516 4.49183 59.8557 4.36078C60.324 4.18736 60.8185 4.09568 61.3178 4.08975C62.148 4.05169 62.3974 4.04381 64.5 4.04381ZM64.5 2.625C62.3613 2.625 62.0929 2.63419 61.2529 2.67225C60.5998 2.68544 59.9536 2.80925 59.3419 3.03844C58.8187 3.24076 58.3435 3.55017 57.9468 3.94683C57.5502 4.34349 57.2408 4.81866 57.0384 5.34188C56.8092 5.95381 56.6854 6.60019 56.6723 7.25353C56.6342 8.09353 56.625 8.36062 56.625 10.5C56.625 12.6394 56.6342 12.9071 56.6723 13.7471C56.6854 14.4002 56.8093 15.0464 57.0384 15.6581C57.2408 16.1813 57.5502 16.6565 57.9468 17.0532C58.3435 17.4498 58.8187 17.7592 59.3419 17.9616C59.9538 18.1908 60.6002 18.3146 61.2535 18.3277C62.0935 18.3658 62.3613 18.375 64.5 18.375C66.6387 18.375 66.9071 18.3658 67.7471 18.3277C68.4005 18.3146 69.0468 18.1908 69.6588 17.9616C70.182 17.7592 70.6572 17.4498 71.0538 17.0532C71.4505 16.6565 71.7599 16.1813 71.9622 15.6581C72.1913 15.0462 72.3148 14.3998 72.3277 13.7465C72.3658 12.9065 72.375 12.6394 72.375 10.5C72.375 8.36062 72.3658 8.09288 72.3277 7.25287C72.3146 6.59976 72.1907 5.9536 71.9616 5.34188C71.7592 4.81866 71.4498 4.34349 71.0532 3.94683C70.6565 3.55017 70.1813 3.24076 69.6581 3.03844C69.0462 2.80941 68.3998 2.68581 67.7465 2.67291C66.9065 2.63353 66.6394 2.625 64.5 2.625Z" fill="black"/>
<path d="M42.0945 6.70242C42.0043 6.36786 41.8281 6.06276 41.5833 5.81747C41.3386 5.57218 41.0339 5.39527 40.6996 5.30434C39.4598 4.96392 34.5 4.95838 34.5 4.95838C34.5 4.95838 29.541 4.95284 28.3005 5.27821C27.9663 5.37333 27.6623 5.55275 27.4174 5.79924C27.1726 6.04573 26.9952 6.35102 26.9024 6.6858C26.5754 7.92555 26.5723 10.4969 26.5723 10.4969C26.5723 10.4969 26.5691 13.0809 26.8937 14.308C27.0758 14.9864 27.6101 15.5224 28.2894 15.7053C29.5418 16.0457 34.4881 16.0512 34.4881 16.0512C34.4881 16.0512 39.4479 16.0568 40.6877 15.7322C41.0222 15.6414 41.3271 15.4649 41.5725 15.2201C41.8178 14.9753 41.995 14.6707 42.0866 14.3365C42.4143 13.0975 42.4167 10.527 42.4167 10.527C42.4167 10.527 42.4325 7.94217 42.0945 6.70242ZM32.9135 12.879L32.9175 8.12901L37.0397 10.508L32.9135 12.879Z" fill="black"/>
<defs>
<clipPath id="clip0_33_71">
<rect width="15" height="15" fill="white" transform="translate(0 2)"/>
</clipPath>
</defs>
</svg>
