<svg width="67" height="67" viewBox="0 0 67 67" fill="none" xmlns="http://www.w3.org/2000/svg">
<path d="M23.5156 65.4531C35.7694 65.4531 45.7031 55.5194 45.7031 43.2656C45.7031 31.0118 35.7694 21.0781 23.5156 21.0781C11.2618 21.0781 1.32812 31.0118 1.32812 43.2656C1.32812 55.5194 11.2618 65.4531 23.5156 65.4531Z" fill="#95573A"/>
<path d="M43.4845 1.10939C38.8446 1.11419 34.3232 2.57499 30.5576 5.28589C26.792 7.99679 23.9721 11.8211 22.4953 16.2197C21.0186 20.6184 20.9595 25.3695 22.3264 29.8035C23.6933 34.2375 26.4172 38.1308 30.1142 40.9345C33.8112 43.7382 38.2949 45.311 42.9333 45.4312C47.5716 45.5514 52.1307 44.2129 55.968 41.6044C59.8053 38.9959 62.7272 35.249 64.3218 30.8917C65.9165 26.5344 66.1036 21.7866 64.8566 17.3174C64.2256 18.3486 63.275 19.1455 62.1493 19.5867C61.0237 20.0279 59.7848 20.0893 58.6211 19.7615C57.4574 19.4336 56.4326 18.7346 55.7028 17.7707C54.973 16.8068 54.5781 15.6309 54.5782 14.4219C54.5807 13.9918 54.682 13.568 54.8744 13.1832C55.0667 12.7985 55.345 12.4632 55.6876 12.2031C52.9211 11.8897 50.1407 9.50598 50.1407 6.65627C50.1396 5.92308 50.2844 5.197 50.5668 4.52036C50.8491 3.84373 51.2634 3.23008 51.7854 2.71521C49.1475 1.65103 46.329 1.10579 43.4845 1.10939Z" fill="#AD6643"/>
<path d="M39.0469 16.6406C40.8849 16.6406 42.375 15.1506 42.375 13.3125C42.375 11.4744 40.8849 9.98438 39.0469 9.98438C37.2088 9.98438 35.7188 11.4744 35.7188 13.3125C35.7188 15.1506 37.2088 16.6406 39.0469 16.6406Z" fill="#5E3725"/>
<path d="M31.2812 33.2812C32.5066 33.2812 33.5 32.2879 33.5 31.0625C33.5 29.8371 32.5066 28.8438 31.2812 28.8438C30.0559 28.8438 29.0625 29.8371 29.0625 31.0625C29.0625 32.2879 30.0559 33.2812 31.2812 33.2812Z" fill="#5E3725"/>
<path d="M50.1406 34.3906C51.9787 34.3906 53.4688 32.9006 53.4688 31.0625C53.4688 29.2244 51.9787 27.7344 50.1406 27.7344C48.3026 27.7344 46.8125 29.2244 46.8125 31.0625C46.8125 32.9006 48.3026 34.3906 50.1406 34.3906Z" fill="#5E3725"/>
<path d="M13.5312 41.0469C15.3693 41.0469 16.8594 39.5568 16.8594 37.7188C16.8594 35.8807 15.3693 34.3906 13.5312 34.3906C11.6932 34.3906 10.2031 35.8807 10.2031 37.7188C10.2031 39.5568 11.6932 41.0469 13.5312 41.0469Z" fill="#5E3725"/>
<path d="M22.4062 54.3594C24.2443 54.3594 25.7344 52.8693 25.7344 51.0312C25.7344 49.1932 24.2443 47.7031 22.4062 47.7031C20.5682 47.7031 19.0781 49.1932 19.0781 51.0312C19.0781 52.8693 20.5682 54.3594 22.4062 54.3594Z" fill="#5E3725"/>
<path d="M36.8281 58.7969C39.2789 58.7969 41.2656 56.8101 41.2656 54.3594C41.2656 51.9086 39.2789 49.9219 36.8281 49.9219C34.3774 49.9219 32.3906 51.9086 32.3906 54.3594C32.3906 56.8101 34.3774 58.7969 36.8281 58.7969Z" fill="#5E3725"/>
<path d="M11.3125 54.3593C11.3122 55.4085 10.9403 56.4237 10.2628 57.2248C9.58531 58.026 8.64597 58.5613 7.61139 58.7358C5.7124 56.7857 4.18803 54.5031 3.11426 52.0019C3.62598 51.1861 4.38918 50.5588 5.28869 50.2147C6.18819 49.8707 7.1752 49.8286 8.10075 50.0947C9.0263 50.3609 9.84018 50.9208 10.4195 51.6901C10.9989 52.4594 11.3123 53.3963 11.3125 54.3593Z" fill="#5E3725"/>
<path d="M41.2656 43.2656C41.2664 43.9997 41.0235 44.7132 40.575 45.2944C38.5264 45.0277 36.5256 44.4736 34.6316 43.6484C34.6165 43.5213 34.6091 43.3935 34.6094 43.2656C34.6094 42.383 34.96 41.5364 35.5842 40.9123C36.2083 40.2881 37.0548 39.9375 37.9375 39.9375C38.8202 39.9375 39.6667 40.2881 40.2908 40.9123C40.915 41.5364 41.2656 42.383 41.2656 43.2656Z" fill="#5E3725"/>
<path d="M39.0469 8.875C38.1692 8.875 37.3113 9.13526 36.5815 9.62285C35.8518 10.1105 35.283 10.8035 34.9472 11.6143C34.6113 12.4252 34.5234 13.3174 34.6946 14.1782C34.8659 15.039 35.2885 15.8297 35.9091 16.4503C36.5297 17.0709 37.3204 17.4935 38.1812 17.6647C39.042 17.836 39.9342 17.7481 40.745 17.4122C41.5559 17.0764 42.2489 16.5076 42.7365 15.7778C43.2241 15.0481 43.4844 14.1902 43.4844 13.3125C43.4831 12.136 43.0151 11.0081 42.1832 10.1762C41.3513 9.34427 40.2234 8.87632 39.0469 8.875ZM39.0469 15.5312C38.6081 15.5312 38.1791 15.4011 37.8142 15.1573C37.4493 14.9135 37.165 14.567 36.997 14.1616C36.8291 13.7562 36.7852 13.31 36.8708 12.8796C36.9564 12.4492 37.1677 12.0539 37.478 11.7436C37.7883 11.4333 38.1836 11.222 38.614 11.1364C39.0444 11.0508 39.4905 11.0947 39.896 11.2626C40.3014 11.4306 40.6479 11.715 40.8917 12.0798C41.1355 12.4447 41.2656 12.8737 41.2656 13.3125C41.2649 13.9007 41.031 14.4647 40.615 14.8806C40.1991 15.2966 39.6351 15.5306 39.0469 15.5312Z" fill="black"/>
<path d="M31.2813 27.7344C30.623 27.7344 29.9796 27.9296 29.4322 28.2953C28.8849 28.661 28.4584 29.1807 28.2065 29.7889C27.9546 30.397 27.8887 31.0662 28.0171 31.7118C28.1455 32.3574 28.4625 32.9504 28.9279 33.4158C29.3934 33.8813 29.9864 34.1983 30.632 34.3267C31.2776 34.4551 31.9467 34.3892 32.5549 34.1373C33.163 33.8854 33.6828 33.4588 34.0485 32.9115C34.4142 32.3642 34.6094 31.7207 34.6094 31.0625C34.6084 30.1801 34.2574 29.3342 33.6335 28.7103C33.0096 28.0863 32.1636 27.7354 31.2813 27.7344ZM31.2813 32.1719C31.0618 32.1719 30.8474 32.1068 30.6649 31.9849C30.4825 31.863 30.3403 31.6898 30.2563 31.487C30.1724 31.2843 30.1504 31.0613 30.1932 30.8461C30.236 30.6309 30.3417 30.4332 30.4968 30.2781C30.652 30.1229 30.8496 30.0172 31.0648 29.9744C31.28 29.9316 31.5031 29.9536 31.7058 30.0376C31.9085 30.1215 32.0818 30.2637 32.2037 30.4462C32.3256 30.6286 32.3906 30.8431 32.3906 31.0625C32.3903 31.3566 32.2733 31.6386 32.0653 31.8466C31.8574 32.0546 31.5754 32.1715 31.2813 32.1719Z" fill="black"/>
<path d="M50.1406 26.625C49.263 26.625 48.405 26.8853 47.6753 27.3729C46.9455 27.8605 46.3768 28.5535 46.0409 29.3643C45.705 30.1752 45.6172 31.0674 45.7884 31.9282C45.9596 32.789 46.3822 33.5797 47.0028 34.2003C47.6234 34.8209 48.4141 35.2435 49.2749 35.4147C50.1357 35.586 51.0279 35.4981 51.8388 35.1622C52.6496 34.8264 53.3427 34.2576 53.8303 33.5278C54.3179 32.7981 54.5781 31.9402 54.5781 31.0625C54.5768 29.886 54.1089 28.7581 53.277 27.9262C52.445 27.0943 51.3171 26.6263 50.1406 26.625ZM50.1406 33.2813C49.7018 33.2813 49.2728 33.1511 48.908 32.9073C48.5431 32.6635 48.2587 32.317 48.0908 31.9116C47.9228 31.5062 47.8789 31.06 47.9645 30.6296C48.0501 30.1993 48.2614 29.8039 48.5717 29.4936C48.882 29.1833 49.2774 28.972 49.7078 28.8864C50.1382 28.8008 50.5843 28.8447 50.9897 29.0126C51.3951 29.1806 51.7417 29.465 51.9855 29.8298C52.2293 30.1947 52.3594 30.6237 52.3594 31.0625C52.3587 31.6507 52.1247 32.2147 51.7088 32.6306C51.2928 33.0466 50.7289 33.2806 50.1406 33.2813Z" fill="black"/>
<path d="M17.9688 37.7188C17.9688 36.8411 17.7085 35.9832 17.2209 35.2534C16.7333 34.5237 16.0403 33.9549 15.2294 33.619C14.4186 33.2832 13.5263 33.1953 12.6655 33.3665C11.8047 33.5377 11.0141 33.9604 10.3935 34.581C9.77287 35.2016 9.35024 35.9923 9.17902 36.853C9.0078 37.7138 9.09567 38.6061 9.43154 39.4169C9.7674 40.2278 10.3362 40.9208 11.0659 41.4084C11.7957 41.896 12.6536 42.1563 13.5313 42.1563C14.7077 42.1549 15.8357 41.687 16.6676 40.8551C17.4995 40.0232 17.9674 38.8952 17.9688 37.7188ZM13.5313 39.9375C13.0924 39.9375 12.6635 39.8074 12.2986 39.5636C11.9337 39.3198 11.6493 38.9733 11.4814 38.5678C11.3135 38.1624 11.2695 37.7163 11.3551 37.2859C11.4407 36.8555 11.6521 36.4602 11.9624 36.1499C12.2727 35.8396 12.668 35.6282 13.0984 35.5426C13.5288 35.457 13.9749 35.501 14.3803 35.6689C14.7858 35.8368 15.1323 36.1212 15.3761 36.4861C15.6199 36.851 15.75 37.2799 15.75 37.7188C15.7493 38.307 15.5153 38.8709 15.0994 39.2869C14.6834 39.7028 14.1195 39.9368 13.5313 39.9375Z" fill="black"/>
<path d="M26.8438 51.0313C26.8438 50.1536 26.5835 49.2957 26.0959 48.5659C25.6083 47.8362 24.9153 47.2674 24.1044 46.9315C23.2936 46.5957 22.4013 46.5078 21.5405 46.679C20.6797 46.8502 19.8891 47.2729 19.2685 47.8935C18.6479 48.5141 18.2252 49.3047 18.054 50.1655C17.8828 51.0263 17.9707 51.9186 18.3065 52.7294C18.6424 53.5403 19.2112 54.2333 19.9409 54.7209C20.6707 55.2085 21.5286 55.4688 22.4063 55.4688C23.5827 55.4674 24.7107 54.9995 25.5426 54.1676C26.3745 53.3357 26.8424 52.2077 26.8438 51.0313ZM22.4063 53.25C21.9674 53.25 21.5385 53.1199 21.1736 52.8761C20.8087 52.6323 20.5243 52.2858 20.3564 51.8803C20.1885 51.4749 20.1445 51.0288 20.2301 50.5984C20.3157 50.168 20.5271 49.7727 20.8374 49.4624C21.1477 49.1521 21.543 48.9407 21.9734 48.8551C22.4038 48.7695 22.8499 48.8135 23.2553 48.9814C23.6608 49.1493 24.0073 49.4337 24.2511 49.7986C24.4949 50.1635 24.625 50.5924 24.625 51.0313C24.6243 51.6195 24.3903 52.1834 23.9744 52.5994C23.5584 53.0153 22.9945 53.2493 22.4063 53.25Z" fill="black"/>
<path d="M40.1563 24.4063C40.3757 24.4063 40.5902 24.3412 40.7726 24.2193C40.9551 24.0974 41.0973 23.9242 41.1812 23.7215C41.2652 23.5187 41.2872 23.2957 41.2444 23.0805C41.2016 22.8653 41.0959 22.6676 40.9407 22.5124L39.8314 21.4031C39.7284 21.3 39.6061 21.2183 39.4715 21.1626C39.3369 21.1068 39.1926 21.0781 39.0469 21.0781C38.9012 21.0781 38.757 21.1068 38.6224 21.1626C38.4878 21.2183 38.3655 21.3 38.2624 21.4031C38.1594 21.5061 38.0777 21.6284 38.0219 21.763C37.9662 21.8976 37.9375 22.0418 37.9375 22.1875C37.9375 22.3332 37.9662 22.4775 38.0219 22.6121C38.0777 22.7467 38.1594 22.869 38.2624 22.972L39.3718 24.0814C39.4747 24.1845 39.597 24.2664 39.7316 24.3221C39.8662 24.3779 40.0106 24.4065 40.1563 24.4063Z" fill="black"/>
<path d="M28.7376 19.1843C28.6346 19.0813 28.5123 18.9996 28.3777 18.9438C28.2431 18.8881 28.0988 18.8594 27.9532 18.8594C27.8075 18.8594 27.6632 18.8881 27.5286 18.9438C27.394 18.9996 27.2717 19.0813 27.1687 19.1843L26.0593 20.2937C25.8513 20.5018 25.7344 20.7839 25.7344 21.0782C25.7344 21.3724 25.8513 21.6546 26.0593 21.8626C26.2674 22.0707 26.5495 22.1876 26.8438 22.1876C27.138 22.1876 27.4202 22.0707 27.6282 21.8626L28.7376 20.7533C28.8406 20.6502 28.9224 20.5279 28.9781 20.3933C29.0339 20.2587 29.0626 20.1145 29.0626 19.9688C29.0626 19.8231 29.0339 19.6788 28.9781 19.5442C28.9224 19.4096 28.8406 19.2873 28.7376 19.1843Z" fill="black"/>
<path d="M57.5814 24.7312C57.3733 24.5231 57.0911 24.4062 56.7969 24.4062C56.5027 24.4063 56.2205 24.5231 56.0124 24.7312C55.8044 24.9392 55.6875 25.2214 55.6875 25.5157C55.6875 25.8099 55.8044 26.0921 56.0124 26.3001L57.1218 27.4095C57.2248 27.5125 57.3471 27.5942 57.4817 27.65C57.6163 27.7057 57.7606 27.7344 57.9063 27.7344C58.052 27.7344 58.1962 27.7057 58.3308 27.65C58.4654 27.5942 58.5877 27.5125 58.6907 27.4095C58.7938 27.3065 58.8755 27.1842 58.9312 27.0496C58.987 26.915 59.0157 26.7707 59.0157 26.625C59.0157 26.4793 58.987 26.3351 58.9312 26.2005C58.8755 26.0659 58.7938 25.9436 58.6907 25.8406L57.5814 24.7312Z" fill="black"/>
<path d="M49.0313 19.9688C49.177 19.969 49.3213 19.9404 49.4559 19.8846C49.5906 19.8289 49.7129 19.747 49.8158 19.6439L50.9251 18.5345C51.1332 18.3264 51.2501 18.0443 51.2501 17.75C51.2501 17.4558 51.1332 17.1736 50.9251 16.9656C50.7171 16.7575 50.4349 16.6406 50.1407 16.6406C49.8464 16.6406 49.5642 16.7575 49.3562 16.9656L48.2468 18.0749C48.0917 18.2301 47.986 18.4278 47.9432 18.643C47.9004 18.8582 47.9224 19.0812 48.0063 19.2839C48.0903 19.4867 48.2325 19.6599 48.4149 19.7818C48.5974 19.9037 48.8119 19.9688 49.0313 19.9688Z" fill="black"/>
<path d="M40.4812 31.3874L39.3718 32.4968C39.1638 32.7049 39.0469 32.987 39.0469 33.2813C39.0469 33.5755 39.1638 33.8577 39.3718 34.0657C39.5799 34.2738 39.862 34.3907 40.1563 34.3907C40.4505 34.3907 40.7327 34.2738 40.9407 34.0657L42.0501 32.9564C42.1531 32.8534 42.2349 32.7311 42.2906 32.5965C42.3464 32.4619 42.3751 32.3176 42.3751 32.1719C42.3751 32.0262 42.3464 31.882 42.2906 31.7474C42.2349 31.6128 42.1531 31.4905 42.0501 31.3874C41.9471 31.2844 41.8248 31.2027 41.6902 31.147C41.5556 31.0912 41.4113 31.0625 41.2657 31.0625C41.12 31.0625 40.9757 31.0912 40.8411 31.147C40.7065 31.2027 40.5842 31.2844 40.4812 31.3874Z" fill="black"/>
<path d="M45.3782 4.76244L44.2689 3.65306C44.0608 3.44501 43.7786 3.32812 43.4844 3.32812C43.1902 3.32812 42.908 3.44501 42.6999 3.65306C42.4919 3.86112 42.375 4.1433 42.375 4.43753C42.375 4.73176 42.4919 5.01394 42.6999 5.222L43.8093 6.33137C43.9123 6.43439 44.0346 6.51611 44.1692 6.57186C44.3038 6.62761 44.4481 6.65631 44.5938 6.65631C44.7395 6.65631 44.8837 6.62761 45.0183 6.57186C45.1529 6.51611 45.2752 6.43439 45.3782 6.33137C45.4813 6.22835 45.563 6.10605 45.6187 5.97145C45.6745 5.83685 45.7032 5.69259 45.7032 5.5469C45.7032 5.40121 45.6745 5.25695 45.6187 5.12235C45.563 4.98775 45.4813 4.86545 45.3782 4.76244Z" fill="black"/>
<path d="M48.7064 38.0437C48.4983 37.8356 48.2161 37.7187 47.9219 37.7188C47.6277 37.7188 47.3455 37.8356 47.1374 38.0437C46.9294 38.2517 46.8125 38.5339 46.8125 38.8282C46.8125 39.1224 46.9294 39.4046 47.1374 39.6126L48.2468 40.722C48.4549 40.9301 48.737 41.0469 49.0313 41.0469C49.3255 41.0469 49.6077 40.9301 49.8157 40.722C50.0238 40.5139 50.1407 40.2318 50.1407 39.9375C50.1407 39.6433 50.0238 39.3611 49.8157 39.1531L48.7064 38.0437Z" fill="black"/>
<path d="M16.0749 29.6282C16.283 29.8363 16.5652 29.9532 16.8594 29.9532C17.1536 29.9532 17.4358 29.8363 17.6439 29.6282C17.8519 29.4202 17.9688 29.138 17.9688 28.8438C17.9688 28.5495 17.8519 28.2674 17.6439 28.0593L16.5345 26.9499C16.4315 26.8469 16.3092 26.7652 16.1746 26.7095C16.04 26.6537 15.8957 26.625 15.75 26.625C15.6043 26.625 15.4601 26.6537 15.3255 26.7095C15.1909 26.7652 15.0686 26.8469 14.9656 26.9499C14.8625 27.053 14.7808 27.1753 14.7251 27.3099C14.6693 27.4445 14.6406 27.5887 14.6406 27.7344C14.6406 27.8801 14.6693 28.0244 14.7251 28.159C14.7808 28.2936 14.8625 28.4159 14.9656 28.5189L16.0749 29.6282Z" fill="black"/>
<path d="M16.0749 44.6999L14.9656 45.8093C14.7575 46.0174 14.6406 46.2996 14.6406 46.5938C14.6406 46.888 14.7575 47.1702 14.9656 47.3783C15.1736 47.5863 15.4558 47.7032 15.75 47.7032C16.0443 47.7032 16.3264 47.5863 16.5345 47.3783L17.6439 46.2689C17.7469 46.1659 17.8286 46.0436 17.8844 45.909C17.9401 45.7744 17.9688 45.6301 17.9688 45.4844C17.9688 45.3387 17.9401 45.1945 17.8844 45.0599C17.8286 44.9253 17.7469 44.803 17.6439 44.6999C17.5408 44.5969 17.4186 44.5152 17.284 44.4594C17.1494 44.4037 17.0051 44.375 16.8594 44.375C16.7137 44.375 16.5694 44.4037 16.4349 44.4594C16.3003 44.5152 16.178 44.5969 16.0749 44.6999Z" fill="black"/>
<path d="M16.5345 56.9031C16.4315 56.8 16.3092 56.7183 16.1746 56.6626C16.04 56.6068 15.8957 56.5781 15.75 56.5781C15.6043 56.5781 15.4601 56.6068 15.3255 56.6626C15.1909 56.7183 15.0686 56.8 14.9656 56.9031C14.8625 57.0061 14.7808 57.1284 14.7251 57.263C14.6693 57.3976 14.6406 57.5418 14.6406 57.6875C14.6406 57.8332 14.6693 57.9775 14.7251 58.1121C14.7808 58.2467 14.8625 58.369 14.9656 58.472L16.0749 59.5814C16.283 59.7894 16.5652 59.9063 16.8594 59.9063C17.1536 59.9063 17.4358 59.7894 17.6439 59.5814C17.8519 59.3733 17.9688 59.0911 17.9688 58.7969C17.9688 58.5027 17.8519 58.2205 17.6439 58.0124L16.5345 56.9031Z" fill="black"/>
<path d="M30.4968 45.8093L29.3874 46.9187C29.1794 47.1267 29.0625 47.4089 29.0625 47.7032C29.0625 47.9974 29.1794 48.2796 29.3874 48.4876C29.5955 48.6957 29.8777 48.8126 30.1719 48.8126C30.4661 48.8126 30.7483 48.6957 30.9564 48.4876L32.0657 47.3783C32.1688 47.2752 32.2505 47.1529 32.3062 47.0183C32.362 46.8837 32.3907 46.7395 32.3907 46.5938C32.3907 46.4481 32.362 46.3038 32.3062 46.1692C32.2505 46.0346 32.1688 45.9123 32.0657 45.8093C31.9627 45.7063 31.8404 45.6246 31.7058 45.5688C31.5712 45.5131 31.427 45.4844 31.2813 45.4844C31.1356 45.4844 30.9913 45.5131 30.8567 45.5688C30.7221 45.6246 30.5998 45.7063 30.4968 45.8093Z" fill="black"/>
<path d="M22.7312 41.8314C22.9392 42.0394 23.2214 42.1563 23.5157 42.1563C23.8099 42.1563 24.0921 42.0394 24.3001 41.8314C24.5082 41.6233 24.6251 41.3411 24.6251 41.0469C24.6251 40.7527 24.5082 40.4705 24.3001 40.2624L23.1907 39.1531C23.0877 39.05 22.9654 38.9683 22.8308 38.9126C22.6962 38.8568 22.552 38.8281 22.4063 38.8281C22.2606 38.8281 22.1163 38.8568 21.9817 38.9126C21.8471 38.9683 21.7248 39.05 21.6218 39.1531C21.5188 39.2561 21.4371 39.3784 21.3813 39.513C21.3256 39.6476 21.2969 39.7918 21.2969 39.9375C21.2969 40.0832 21.3256 40.2275 21.3813 40.3621C21.4371 40.4967 21.5188 40.619 21.6218 40.722L22.7312 41.8314Z" fill="black"/>
<path d="M26.0593 58.0124L24.9499 59.1218C24.7419 59.3299 24.625 59.6121 24.625 59.9063C24.625 60.2005 24.7419 60.4827 24.9499 60.6908C25.158 60.8988 25.4402 61.0157 25.7344 61.0157C26.0286 61.0157 26.3108 60.8988 26.5189 60.6908L27.6282 59.5814C27.7313 59.4784 27.813 59.3561 27.8687 59.2215C27.9245 59.0869 27.9532 58.9426 27.9532 58.7969C27.9532 58.6512 27.9245 58.507 27.8687 58.3724C27.813 58.2378 27.7313 58.1155 27.6282 58.0124C27.5252 57.9094 27.4029 57.8277 27.2683 57.7719C27.1337 57.7162 26.9895 57.6875 26.8438 57.6875C26.6981 57.6875 26.5538 57.7162 26.4192 57.7719C26.2846 57.8277 26.1623 57.9094 26.0593 58.0124Z" fill="black"/>
<path d="M6.09056 41.3718L4.98119 42.4812C4.77313 42.6892 4.65625 42.9714 4.65625 43.2657C4.65625 43.5599 4.77313 43.8421 4.98119 44.0501C5.18924 44.2582 5.47142 44.3751 5.76565 44.3751C6.05989 44.3751 6.34207 44.2582 6.55012 44.0501L7.6595 42.9408C7.76251 42.8377 7.84423 42.7154 7.89998 42.5808C7.95574 42.4462 7.98443 42.302 7.98443 42.1563C7.98443 42.0106 7.95574 41.8663 7.89998 41.7317C7.84423 41.5971 7.76251 41.4748 7.6595 41.3718C7.55648 41.2688 7.43418 41.1871 7.29958 41.1313C7.16498 41.0756 7.02072 41.0469 6.87503 41.0469C6.72934 41.0469 6.58508 41.0756 6.45048 41.1313C6.31588 41.1871 6.19358 41.2688 6.09056 41.3718Z" fill="black"/>
<path d="M65.0101 16.2187C64.7962 16.1888 64.5783 16.222 64.383 16.3142C64.1877 16.4064 64.0236 16.5536 63.9107 16.7377C63.4061 17.563 62.6456 18.2007 61.745 18.5539C60.8445 18.907 59.8532 18.9562 58.9221 18.694C57.991 18.4318 57.1711 17.8725 56.5872 17.1013C56.0033 16.3301 55.6873 15.3892 55.6875 14.4219C55.6895 14.1583 55.7532 13.8987 55.8733 13.664C55.9934 13.4293 56.1668 13.2259 56.3795 13.0701C56.5508 12.9333 56.6777 12.7488 56.7443 12.5398C56.8108 12.3309 56.8139 12.1069 56.7532 11.8962C56.6925 11.6855 56.5707 11.4975 56.4033 11.356C56.2358 11.2145 56.0302 11.1257 55.8123 11.101C53.1237 10.7962 51.25 8.51448 51.25 6.65628C51.2482 6.06971 51.3636 5.48868 51.5895 4.94735C51.8154 4.40601 52.1472 3.91528 52.5654 3.50399C52.6959 3.37475 52.7923 3.21513 52.8459 3.03946C52.8995 2.86379 52.9086 2.67757 52.8725 2.49749C52.8363 2.31742 52.7561 2.14914 52.6388 2.00775C52.5216 1.86636 52.3711 1.75628 52.2009 1.68739C49.4314 0.568069 46.4715 -0.00491056 43.4844 3.17014e-05C31.6962 3.17014e-05 21.9262 8.80126 20.3969 20.1775C14.8091 20.9327 9.68483 23.6886 5.97431 27.9343C2.2638 32.1799 0.218862 37.6271 0.21875 43.2657C0.21875 56.1115 10.6696 66.5625 23.5156 66.5625C29.1543 66.5626 34.6017 64.5177 38.8475 60.8072C43.0932 57.0967 45.8493 51.9723 46.6045 46.3844C57.98 44.8551 66.7812 35.0851 66.7812 23.2969C66.7825 21.1751 66.4944 19.0631 65.9249 17.0191C65.8669 16.8111 65.7494 16.6246 65.5869 16.4824C65.4244 16.3403 65.224 16.2486 65.0101 16.2187ZM7.98299 57.4987C6.52092 55.9051 5.31188 54.0968 4.39804 52.1368C4.73689 51.7595 5.15745 51.4647 5.62762 51.2748C6.09779 51.0849 6.60514 51.005 7.11093 51.041C7.61671 51.0771 8.10756 51.2283 8.546 51.4831C8.98444 51.7378 9.35887 52.0894 9.64071 52.5109C9.92255 52.9325 10.1043 53.4128 10.1722 53.9153C10.2401 54.4178 10.1922 54.9292 10.0323 55.4104C9.87234 55.8916 9.60457 56.3299 9.24941 56.6918C8.89425 57.0537 8.46108 57.3297 7.98299 57.4987ZM36.8281 57.6875C36.1699 57.6875 35.5264 57.4923 34.9791 57.1266C34.4318 56.7609 34.0052 56.2412 33.7533 55.633C33.5014 55.0249 33.4355 54.3557 33.5639 53.7101C33.6924 53.0645 34.0093 52.4715 34.4748 52.0061C34.9402 51.5406 35.5332 51.2236 36.1788 51.0952C36.8244 50.9668 37.4936 51.0327 38.1017 51.2846C38.7099 51.5365 39.2297 51.9631 39.5954 52.5104C39.9611 53.0577 40.1562 53.7012 40.1562 54.3594C40.1552 55.2418 39.8043 56.0877 39.1803 56.7116C38.5564 57.3355 37.7105 57.6865 36.8281 57.6875ZM42.2086 53.0129C41.9602 52.0194 41.4417 51.1141 40.7105 50.3972C39.9792 49.6803 39.0638 49.1798 38.0656 48.9512C37.0674 48.7226 36.0254 48.7748 35.055 49.102C34.0846 49.4292 33.2238 50.0186 32.5678 50.805C31.9119 51.5913 31.4864 52.5439 31.3385 53.5573C31.1907 54.5706 31.3263 55.605 31.7302 56.5461C32.1341 57.4871 32.7907 58.2979 33.6271 58.8887C34.4635 59.4795 35.4472 59.8273 36.4691 59.8934C32.6121 62.9002 27.8288 64.4708 22.9401 64.3354C18.0515 64.2001 13.3624 62.3673 9.6777 59.1516C10.3306 58.7694 10.8985 58.2577 11.3464 57.6479C11.7943 57.0382 12.1128 56.3433 12.2823 55.606C12.4519 54.8687 12.4689 54.1045 12.3323 53.3603C12.1957 52.6162 11.9083 51.9079 11.488 51.2788C11.0676 50.6498 10.5231 50.1133 9.88778 49.7025C9.2525 49.2916 8.53992 49.0149 7.79382 48.8895C7.04772 48.7641 6.28385 48.7926 5.54915 48.9731C4.81445 49.1537 4.12444 49.4826 3.5215 49.9397C2.55297 47.037 2.22795 43.9583 2.56901 40.9173C2.91006 37.8764 3.90902 34.9462 5.49649 32.3302C7.08396 29.7142 9.22189 27.4751 11.7618 25.7685C14.3017 24.0619 17.1826 22.9287 20.2046 22.4475C20.1944 22.7295 20.1875 23.0124 20.1875 23.2969C20.1875 36.1429 30.6384 46.5938 43.4844 46.5938C43.7689 46.5938 44.0518 46.5868 44.3339 46.5766C43.9793 48.8231 43.2615 50.997 42.2086 53.0129ZM35.7506 42.9051C35.8009 42.5977 35.9155 42.3044 36.0867 42.0442C36.2579 41.784 36.4821 41.5628 36.7445 41.395C37.0069 41.2273 37.3018 41.1166 37.6098 41.0704C37.9178 41.0242 38.2321 41.0434 38.5322 41.1267C38.8324 41.2101 39.1116 41.3557 39.3516 41.5542C39.5917 41.7526 39.7873 41.9994 39.9256 42.2785C40.0639 42.5576 40.1419 42.8627 40.1545 43.1739C40.167 43.4851 40.1138 43.7955 39.9984 44.0848C38.5449 43.8424 37.121 43.447 35.7506 42.9051ZM43.4844 44.375C43.0684 44.375 42.6553 44.3612 42.2449 44.3376C42.5243 43.2157 42.3549 42.029 41.7727 41.0301C41.1905 40.0312 40.2415 39.299 39.1276 38.9891C38.0137 38.6793 36.8229 38.8164 35.8086 39.3712C34.7942 39.926 34.0364 40.8547 33.6964 41.9598C30.2928 40.1728 27.4421 37.4898 25.4523 34.2006C23.4625 30.9114 22.4093 27.1411 22.4062 23.2969C22.4062 11.6744 31.8619 2.21878 43.4844 2.21878C45.6876 2.21538 47.8777 2.55878 49.9742 3.23636C49.3541 4.26911 49.0281 5.45168 49.0312 6.65628C49.0312 9.53109 51.265 11.8914 53.7959 12.8649C53.5787 13.3552 53.4672 13.8857 53.4688 14.4219C53.4699 15.6715 53.8225 16.8956 54.4862 17.9544C55.1499 19.0131 56.098 19.8639 57.2222 20.4095C58.3464 20.9551 59.6013 21.1736 60.8438 21.0399C62.0862 20.9062 63.266 20.4258 64.2484 19.6536C64.4577 20.8567 64.5628 22.0757 64.5625 23.2969C64.5625 34.9194 55.1069 44.375 43.4844 44.375Z" fill="black"/>
</svg>
