<svg width="71" height="71" viewBox="0 0 71 71" fill="none" xmlns="http://www.w3.org/2000/svg">
<path d="M16.3863 37.0334C16.4914 36.3327 16.8445 35.6929 17.3815 35.2305C17.9184 34.7682 18.6035 34.5139 19.3121 34.5139H32.952C33.6605 34.5139 34.3456 34.7682 34.8826 35.2305C35.4195 35.6929 35.7726 36.3327 35.8777 37.0334L37.9486 50.839C38.0117 51.2599 37.9833 51.6894 37.8652 52.0983C37.7472 52.5073 37.5423 52.8859 37.2646 53.2084C36.9868 53.5308 36.6428 53.7896 36.2559 53.967C35.869 54.1444 35.4484 54.2362 35.0228 54.2361H17.2412C16.8156 54.2362 16.395 54.1444 16.0081 53.967C15.6213 53.7896 15.2772 53.5308 14.9995 53.2084C14.7217 52.8859 14.5168 52.5073 14.3988 52.0983C14.2807 51.6894 14.2523 51.2599 14.3154 50.839L16.3863 37.0334Z" fill="white"/>
<path fill-rule="evenodd" clip-rule="evenodd" d="M20.4561 34.5139H19.3122C18.6036 34.5139 17.9185 34.7682 17.3816 35.2305C16.8446 35.6929 16.4915 36.3327 16.3864 37.0334L14.3155 50.839C14.2652 51.1743 14.2731 51.5046 14.3313 51.8182C13.5824 51.4542 12.951 50.8868 12.5093 50.1809C12.0676 49.475 11.8334 48.6591 11.8335 47.8264V35.9931C11.8326 34.9456 12.2023 33.9316 12.8771 33.1305C13.5519 32.3293 14.4883 31.7928 15.5207 31.6157C16.5531 31.4386 17.6148 31.6324 18.5181 32.1628C19.4213 32.6932 20.1078 33.526 20.4561 34.5139Z" fill="white"/>
<path fill-rule="evenodd" clip-rule="evenodd" d="M17.7498 54.2361H34.5137C35.2983 54.2361 36.0508 53.9244 36.6056 53.3696C37.1604 52.8148 37.4721 52.0624 37.4721 51.2778V44.375H14.7915V51.2778C14.7915 52.0624 15.1032 52.8148 15.658 53.3696C16.2128 53.9244 16.9652 54.2361 17.7498 54.2361Z" fill="#6A462F"/>
<path fill-rule="evenodd" clip-rule="evenodd" d="M12.8196 11.8333C12.5581 11.8333 12.3073 11.9372 12.1223 12.1221C11.9374 12.3071 11.8335 12.5579 11.8335 12.8194V25.6389H42.4029V54.2361H11.8335V58.1805C11.8335 58.4421 11.9374 58.6929 12.1223 58.8778C12.3073 59.0627 12.5581 59.1666 12.8196 59.1666H58.1807C58.4422 59.1666 58.6931 59.0627 58.878 58.8778C59.0629 58.6929 59.1668 58.4421 59.1668 58.1805V12.8194C59.1668 12.5579 59.0629 12.3071 58.878 12.1221C58.6931 11.9372 58.4422 11.8333 58.1807 11.8333H12.8196Z" fill="white"/>
<path d="M51.2777 18.7361H49.3054C48.7608 18.7361 48.3193 19.1776 48.3193 19.7222V37.4722C48.3193 38.0168 48.7608 38.4583 49.3054 38.4583H51.2777C51.8223 38.4583 52.2638 38.0168 52.2638 37.4722V19.7222C52.2638 19.1776 51.8223 18.7361 51.2777 18.7361Z" fill="#D0CFCE"/>
<path d="M50.7846 48.3195C52.1461 48.3195 53.2499 47.2157 53.2499 45.8542C53.2499 44.4927 52.1461 43.3889 50.7846 43.3889C49.4231 43.3889 48.3193 44.4927 48.3193 45.8542C48.3193 47.2157 49.4231 48.3195 50.7846 48.3195Z" fill="#D22F27" stroke="#D0CFCE" stroke-width="2"/>
<path d="M16.7637 28.5972H35.4998V34.5139H16.7637V28.5972Z" fill="white"/>
<path d="M19.3122 34.5139C18.6036 34.5138 17.9185 34.7681 17.3816 35.2305C16.8446 35.6929 16.4915 36.3326 16.3864 37.0334L14.3155 50.8389C14.2652 51.1742 14.2731 51.5046 14.3313 51.8182C13.5824 51.4542 12.951 50.8868 12.5093 50.1809C12.0675 49.475 11.8334 48.6591 11.8335 47.8264V35.993C11.8335 34.8161 12.301 33.6874 13.1332 32.8553C13.9654 32.0231 15.0941 31.5555 16.271 31.5555" stroke="black" stroke-width="2" stroke-linecap="round"/>
<path d="M11.8333 25.6389H10.8472C10.8472 25.9004 10.9511 26.1512 11.136 26.3362C11.3209 26.5211 11.5717 26.625 11.8333 26.625V25.6389ZM42.4027 25.6389H43.3888C43.3888 25.3774 43.2849 25.1265 43.1 24.9416C42.9151 24.7567 42.6643 24.6528 42.4027 24.6528V25.6389ZM42.4027 54.2361V55.2222C42.6643 55.2222 42.9151 55.1183 43.1 54.9334C43.2849 54.7485 43.3888 54.4976 43.3888 54.2361H42.4027ZM11.8333 54.2361V53.25C11.5717 53.25 11.3209 53.3539 11.136 53.5388C10.9511 53.7238 10.8472 53.9746 10.8472 54.2361H11.8333ZM12.8194 12.8195V10.8472C12.2963 10.8472 11.7947 11.055 11.4248 11.4249C11.055 11.7947 10.8472 12.2964 10.8472 12.8195H12.8194ZM12.8194 25.6389V12.8195H10.8472V25.6389H12.8194ZM11.8333 26.625H42.4027V24.6528H11.8333V26.625ZM41.4166 25.6389V54.2361H43.3888V25.6389H41.4166ZM42.4027 53.25H11.8333V55.2222H42.4027V53.25ZM12.8194 58.1806V54.2361H10.8472V58.1806H12.8194ZM12.8194 58.1806H10.8472C10.8472 58.7036 11.055 59.2053 11.4248 59.5751C11.7947 59.945 12.2963 60.1528 12.8194 60.1528V58.1806ZM58.1805 58.1806H12.8194V60.1528H58.1805V58.1806ZM58.1805 58.1806V60.1528C58.7036 60.1528 59.2052 59.945 59.5751 59.5751C59.9449 59.2053 60.1527 58.7036 60.1527 58.1806H58.1805ZM58.1805 12.8195V58.1806H60.1527V12.8195H58.1805ZM58.1805 12.8195H60.1527C60.1527 12.2964 59.9449 11.7947 59.5751 11.4249C59.2052 11.055 58.7036 10.8472 58.1805 10.8472V12.8195ZM12.8194 12.8195H58.1805V10.8472H12.8194V12.8195Z" fill="black"/>
<path d="M11.8335 25.6389H41.9099" stroke="black" stroke-width="2"/>
<path d="M39.4443 25.6389V12.3264" stroke="black" stroke-width="2"/>
<path d="M11.8335 54.2361H59.1668H11.8335Z" fill="black"/>
<path d="M11.8335 54.2361H59.1668" stroke="black" stroke-width="2"/>
<path d="M50.7846 48.3195C50.1308 48.3195 49.5037 48.0597 49.0414 47.5974C48.5791 47.1351 48.3193 46.508 48.3193 45.8542C48.3193 45.2004 48.5791 44.5733 49.0414 44.111C49.5037 43.6486 50.1308 43.3889 50.7846 43.3889" stroke="black" stroke-width="2" stroke-linecap="round"/>
<path d="M16.3863 37.0334C16.4914 36.3327 16.8445 35.6929 17.3815 35.2305C17.9184 34.7682 18.6035 34.5139 19.3121 34.5139H32.952C33.6605 34.5139 34.3456 34.7682 34.8826 35.2305C35.4195 35.6929 35.7726 36.3327 35.8777 37.0334L37.9486 50.839C38.0117 51.2599 37.9833 51.6894 37.8652 52.0983C37.7472 52.5073 37.5423 52.8859 37.2646 53.2084C36.9868 53.5308 36.6428 53.7896 36.2559 53.967C35.869 54.1444 35.4484 54.2362 35.0228 54.2361H17.2412C16.8156 54.2362 16.395 54.1444 16.0081 53.967C15.6213 53.7896 15.2772 53.5308 14.9995 53.2084C14.7217 52.8859 14.5168 52.5073 14.3988 52.0983C14.2807 51.6894 14.2523 51.2599 14.3154 50.839L16.3863 37.0334Z" stroke="black" stroke-width="2"/>
<path d="M16.7637 28.5972H35.4998V34.5139H16.7637V28.5972Z" stroke="black" stroke-width="2" stroke-linejoin="round"/>
<path d="M49.3057 19.7222V37.4722V19.7222Z" fill="black"/>
<path d="M49.3057 19.7222V37.4722" stroke="black" stroke-width="2" stroke-linecap="round"/>
<path d="M49.3057 19.7222H51.2779" stroke="black" stroke-width="2" stroke-linecap="round"/>
<path d="M49.3057 37.4722H51.2779" stroke="black" stroke-width="2" stroke-linecap="round"/>
<path d="M49.3057 28.5972H51.2779" stroke="black" stroke-width="2" stroke-linecap="round"/>
</svg>
